<svg id="Layer_1" data-name="Layer 1" xmlns="http://www.w3.org/2000/svg" viewBox="0 0 462.02 482.02"><defs><style>.cls-1{fill:none;}.cls-2{fill:#85b4eb;}.cls-3{fill:#2a292a;}.cls-4{fill:#050504;}.cls-5{fill:#fddbc6;}.cls-6{fill:#fbcf3d;}.cls-7{fill:#fefefe;}</style></defs><path class="cls-1" d="M144.48,297.1l.11.15c-.38,1.41.6,2.22,1.41,3.07,1.43,1.5,3.23,2.76,4.31,4.47,3.81,6,9.68,10,14.94,14.31a105.51,105.51,0,0,0,28.9,16.83c4.68,1.8,9.27,4,14.09,5.23a176.75,176.75,0,0,0,18.26,4.15c6.9,1,13.76,2.28,20.76,2.29,5.35,0,10.71-.17,16.05.06,3.87.17,7.57-.78,11.36-1,2.78-.17,3.46.57,2.77,3.2a59.83,59.83,0,0,0-1.84,9.25c-.47,5-3,9-5.14,13.24a1.87,1.87,0,0,1-1.61,1.28c-1,0-.89-1-1.11-1.61-1-2.68-1.48-5.67-3.32-7.88-4.26-5.1-10.07-6.8-16.35-5.65-10.16,1.86-18.61,10.91-19.48,21.31-.48,5.78-1.09,11.76,1.07,17.54,1.14,3,2.34,6,3.74,8.94,2.54,5.32,6.36,9.51,10.52,13.42,3.88,3.64,8.85,5.35,13.9,6.88a24.89,24.89,0,0,0,14.14.3c8.79-2.52,17.09-6.24,22.09-14.63,1.05-1.77,1.72-1.34,2.51.08a10.7,10.7,0,0,1-1.3,3.51c-2.33,4-3.43,8.65-6.14,12.48-.25.19-.65.32-.73.57-1.8,5.45-4.94,10.31-6.77,15.78s-4,10.88-4.26,16.8a34.63,34.63,0,0,0,2.74,15.35c1.35,3.23,2.56,4.57,6,4.58,10.15,0,20.3,0,30.44,0a8.21,8.21,0,0,0,4.91-1.54c6.45-4.47,9.88-11.38,14-17.66,4.21-6.48,6.64-13.91,9.49-21.09a93.85,93.85,0,0,0,2.95-10.05c1.32-4.81,2.06-9.8,3.18-14.66a155.74,155.74,0,0,0,2.59-17.59,130.92,130.92,0,0,0,.74-16.95c-.17-10.07,0-20.14-.09-30.21,0-2.21.72-3.45,3.06-3.67a16.73,16.73,0,0,0,8.89-3.08c4.35-3.38,8-7.21,9.92-12.75,2.84-8,3.09-15.77,0-23.67a3.58,3.58,0,0,1,.86-4.14c2.89-3,6.39-5.34,9.21-8.31a210.87,210.87,0,0,0,18.1-21.22,100.39,100.39,0,0,0,7.28-11.42c2.59-4.88,5.45-9.67,7.21-15,2.11-6.45,5.28-12.52,6.7-19.26,1.3-6.14,3.06-12.31,3.28-18.48.3-8.54,1.12-17.17-.71-25.73-1.62-7.59-2.37-15.33-5.53-22.59-3.94-9-7.2-18.31-13.37-26.29-3.69-4.77-7-9.8-11.35-14.07-2.59-2.55-2.39-3.4,1-4.49,6.9-2.21,13-6,19.13-9.7,5.57-3.4,9.69-8.47,14-13.28A31.69,31.69,0,0,0,437.09,87c1.4-3,2.81-6,4-9.2,2.94-8.08,1.92-16.36,1.63-24.61a16,16,0,0,0-1-5.13c-3.06-7.84-6.76-15.3-13.43-20.83-3-2.45-5.78-5.05-10.09-4.61-2.1.22-3.31,1.18-3.33,3.29,0,2.53-.19,5.05.68,7.57,1.06,3.06-.51,5.31-3.36,5.44a7,7,0,0,1-3.85-1.09,85.16,85.16,0,0,1-15.93-12,76.69,76.69,0,0,0-22.67-15.14,68.81,68.81,0,0,0-21.28-4.78c-3.46-.28-6.8.4-10.16,1a56.28,56.28,0,0,0-17.55,5.92c-4.74,2.61-8.21,6.54-12,10.21-4,3.87-6.4,8.78-8,13.89-1.88,5.86-3.56,11.89-2.78,18.24a34.52,34.52,0,0,1,0,4.07c0,5.34,0,5.3-3.81,9.16A33,33,0,0,0,288.49,76c-.41.77-.89,1.39-1.82,1.28-5.13-.59-10.08,1.65-15.19,1-4-.51-7.78.61-11.54,1.25a214,214,0,0,0-24.81,5.66A185.17,185.17,0,0,0,209.36,95c-3.8,1.78-7.69,3.4-11.32,5.49-7.72,4.44-15.09,9.45-22.39,14.55a2.19,2.19,0,0,1-2.78.18c-6.94-4-14-3.48-21-.24-1.36.62-2,.41-2.79-.57-2-2.38-4-4.77-6.1-7-3.75-4-8.3-6.78-13-9.6a45.22,45.22,0,0,0-20.52-6.85c-6.61-.41-13.29-.65-20,.63a46.24,46.24,0,0,0-19.29,8.83c-6.23,4.69-11.09,10.93-15.42,17.47a6.66,6.66,0,0,0-.64,1.28c-2.55,6.25-5.63,12.28-7.55,18.8a100.68,100.68,0,0,1-6.41,15.38c-3.4,7-10.28,10.92-17.51,5.83C21,158,19.54,156.65,18,155.45c-2-1.53-3.69-1.35-5.54.39s-2.46,4-2.64,6.45c-.64,8.32,2.85,15.47,6.49,22.53.51,1,1.14,2.28,2.61,2.44l.31.53a1.06,1.06,0,0,0-.07,1.33c2.85,4.41,6.61,8.1,10.13,11.91,2.14,2.32,5.09,4,7.44,6.24.65.63,1.35,1.39,2.45.89l1.46,1.32a.71.71,0,0,0,.25,1A103.71,103.71,0,0,0,50.3,216a138.21,138.21,0,0,0,16.42,6.27,65.65,65.65,0,0,0,16,2.86c6.37.33,12.81.77,19.24-.71,3.68-.84,7.43-1.16,11.07-2.48,2.14-.77,4.51-2,7-.93,0,3.09,0,6.18,0,9.27-1.36,1.28.46,2.17.42,3.35a71.38,71.38,0,0,0,1.38,15.13c1,5.57,3,10.85,4.64,16.2a102.4,102.4,0,0,0,7.8,17.63c2.67,5,6.27,9.35,9.09,14.22A.74.74,0,0,0,144.48,297.1Z"/><path class="cls-2" d="M18.88,187.26c-1.47-.16-2.1-1.46-2.61-2.44-3.64-7.06-7.13-14.21-6.49-22.53.18-2.45.76-4.69,2.64-6.45s3.53-1.92,5.54-.39c1.58,1.2,3.06,2.53,4.69,3.67,7.23,5.09,14.11,1.13,17.51-5.83a100.68,100.68,0,0,0,6.41-15.38c1.92-6.52,5-12.55,7.55-18.8a6.66,6.66,0,0,1,.64-1.28c4.33-6.54,9.19-12.78,15.42-17.47a46.24,46.24,0,0,1,19.29-8.83c6.71-1.28,13.39-1,20-.63A45.22,45.22,0,0,1,130,97.75c4.69,2.82,9.24,5.63,13,9.6,2.13,2.26,4.11,4.65,6.1,7,.83,1,1.43,1.19,2.79.57,7-3.24,14.06-3.79,21,.24a2.19,2.19,0,0,0,2.78-.18c7.3-5.1,14.67-10.11,22.39-14.55,3.63-2.09,7.52-3.71,11.32-5.49a185.17,185.17,0,0,1,25.77-9.81,214,214,0,0,1,24.81-5.66c3.76-.64,7.58-1.76,11.54-1.25,5.11.65,10.06-1.59,15.19-1,.93.11,1.41-.51,1.82-1.28a33,33,0,0,1,5.67-7.59c3.78-3.86,3.82-3.82,3.81-9.16a34.52,34.52,0,0,0,0-4.07c-.78-6.35.9-12.38,2.78-18.24,1.65-5.11,4.06-10,8-13.89,3.76-3.67,7.23-7.6,12-10.21A56.28,56.28,0,0,1,338.3,6.89c3.36-.6,6.7-1.28,10.16-1a68.81,68.81,0,0,1,21.28,4.78,76.69,76.69,0,0,1,22.67,15.14,85.16,85.16,0,0,0,15.93,12,7,7,0,0,0,3.85,1.09c2.85-.13,4.42-2.38,3.36-5.44-.87-2.52-.71-5-.68-7.57,0-2.11,1.23-3.07,3.33-3.29,4.31-.44,7.14,2.16,10.09,4.61,6.67,5.53,10.37,13,13.43,20.83a16,16,0,0,1,1,5.13c.29,8.25,1.31,16.53-1.63,24.61-1.15,3.15-2.56,6.19-4,9.2A31.69,31.69,0,0,1,432,94.48c-4.28,4.81-8.4,9.88-14,13.28-6.11,3.73-12.23,7.49-19.13,9.7-3.41,1.09-3.61,1.94-1,4.49,4.33,4.27,7.66,9.3,11.35,14.07,6.17,8,9.43,17.26,13.37,26.29,3.16,7.26,3.91,15,5.53,22.59,1.83,8.56,1,17.19.71,25.73-.22,6.17-2,12.34-3.28,18.48-1.42,6.74-4.59,12.81-6.7,19.26-1.76,5.37-4.62,10.16-7.21,15a100.39,100.39,0,0,1-7.28,11.42,210.87,210.87,0,0,1-18.1,21.22c-2.82,3-6.32,5.32-9.21,8.31a3.58,3.58,0,0,0-.86,4.14c3.07,7.9,2.82,15.63,0,23.67-2,5.54-5.57,9.37-9.92,12.75a16.73,16.73,0,0,1-8.89,3.08c-2.34.22-3.08,1.46-3.06,3.67.06,10.07-.08,20.14.09,30.21a130.92,130.92,0,0,1-.74,16.95,155.74,155.74,0,0,1-2.59,17.59c-1.12,4.86-1.86,9.85-3.18,14.66a93.85,93.85,0,0,1-2.95,10.05c-2.85,7.18-5.28,14.61-9.49,21.09-4.09,6.28-7.52,13.19-14,17.66a8.21,8.21,0,0,1-4.91,1.54c-10.14-.05-20.29,0-30.44,0-3.47,0-4.68-1.35-6-4.58a34.63,34.63,0,0,1-2.74-15.35c.27-5.92,2.42-11.29,4.26-16.8s5-10.33,6.77-15.78c.08-.25.48-.38.73-.57a5.27,5.27,0,0,1-.82,4.11c-3.39,5.84-5.56,12.2-7.78,18.51a29.93,29.93,0,0,0-2,10c0,5.21.19,10.26,2.5,15.16,1.65,3.52,2.17,4.36,6.06,4.36,9.51,0,19-.06,28.52,0a9.07,9.07,0,0,0,6.51-2.54c6.89-6.38,11.6-14.37,15.71-22.64a138.6,138.6,0,0,0,10-28.32c1.17-4.65,1.95-9.35,2.74-14,.62-3.73,1.06-7.55,1.66-11.26A107.05,107.05,0,0,0,353.31,388c.36-11.25.08-22.53.12-33.79,0-6.85-1.53-6.24,6.35-7.66,2.59-.46,5.65-1.15,7.14-4v0c1,.05,1.53-.73,2.16-1.31a24,24,0,0,0,6.7-10.76,29.88,29.88,0,0,0,.26-18.92c-1-3.12-1.88-6,.45-8.82h0c.44-.15,1-.18,1.29-.48a90.65,90.65,0,0,1,7.57-6.55c3.88-3.2,6.28-7.81,10.13-11.09.37-.31.68-.74,0-1.09l3-3.43c2.51-1.57,3.79-4,4.8-6.68,1.92-1.5,2.26-4,3.84-5.76,1.25.21,1.26-.92,1.75-1.57,2-2.65,2.88-5.9,4.56-8.75,1.52-2.57,3.16-5.21,3.33-8.37l3.51-8.07a38.83,38.83,0,0,0,2.24-5.71c.3-1.32,1.64-2.43.92-4l.1-1.26c.38-.07.59-.24.38-.66l.23-1.83c1.29-1.86,1.23-4.11,1.67-6.19a74.1,74.1,0,0,0,2-11.56c.32-6.77.07-13.56.1-20.33a3.49,3.49,0,0,0-1.39-3.29c-.07-.6-.15-1.21-.22-1.81.38-2.71-.43-5.24-1.21-7.78q-.82-3.54-1.64-7.09c.59-1.4-.5-2.44-.88-3.57-4-12.33-9.55-23.91-17.76-34.06-2-2.43-3.27-5.48-6.23-7.06a7.5,7.5,0,0,0-2.3-2.39,2,2,0,0,0-.89-1.62c-1.81-1.59-1.06-2.5.77-3.21,2.38-.92,4.72-1.94,7.11-2.81,4.47-1.64,8.3-4.41,12.39-6.72A46.9,46.9,0,0,0,426,99.53a2.44,2.44,0,0,0,.92-2.12,16.88,16.88,0,0,0,3.26-3.28,4,4,0,0,0,2-2.94c.45-.13.46-.47.39-.84a5.56,5.56,0,0,0,3.12-3.08,55.73,55.73,0,0,0,6.33-25.6c0-9.33-2.86-17.43-7-25.37-.22-.42-.46-.85-1-.89A2.79,2.79,0,0,0,432.63,34a2.21,2.21,0,0,0-1.47-2,18.25,18.25,0,0,0-3.77-3.78,2.28,2.28,0,0,0-2-1.5l-.47-.39c-1.52-2.07-3.77-2.39-6.1-2.5-2-.08-2.92,1-3.07,2.86a15.72,15.72,0,0,0,1.38,7.86v1.35A14.42,14.42,0,0,1,416,38.2c-1.52,2-4.15,2.45-6.93,1.26-3.09-1.32-5.65-3.49-8.57-5.08l-.42-.4c-.67-1.49-2.05-2-3.43-2.46a4.57,4.57,0,0,0-1.88-1.84c-3-2.84-5.52-6.27-9.53-7.9a.77.77,0,0,0-.63-.68c0-.77-.68-1-1.18-1.4a69.42,69.42,0,0,0-16.31-8.84,56.33,56.33,0,0,0-18.37-3.7,52.49,52.49,0,0,0-25.36,5.63c-3.4,1.71-7.1,3.31-9.22,6.88-2.09,1.75-4.26,3.43-5.49,6a2.55,2.55,0,0,0-1.85,2.13.16.16,0,0,0-.1.2,5.75,5.75,0,0,0-2.48,5.16l-.33.68c-2.39,2.14-2.83,5-3,8l-.22.86c-.7.55-.59,1.26-.4,2-.12.35-.25.69-.37,1-1,.54-.72,1.52-.73,2.35,0,2.88-.07,5.75,0,8.63,0,2.06-.35,4.19.54,6.15,1,2.26.28,3.48-1.92,4.49-2.54,1.17-4.76,2.89-5.44,5.89l.12.1-.13-.1c-.64.07-.87.49-.88,1.08a1.29,1.29,0,0,0-.87.91c-.89.19-.92,1-1.15,1.65a2,2,0,0,1-1.92,1.53c-3.65,0-7.3.89-10.83.87-8.73-.06-17.13,1.77-25.63,3.09-1.05.16-2.24.23-3,1.24l-.56,0a2.37,2.37,0,0,0-2.8,1l-1.5.07a34.45,34.45,0,0,0-8.88,2c-10.46,3.21-20.49,7.56-30.46,12-.57.26-1.17.55-1.2,1.33l.1.12-.12-.1a5.24,5.24,0,0,0-.91.19c-6.17,2.61-11.45,6.76-17.26,10a1.19,1.19,0,0,0-.76,1.11l-.65.63c-1.21.29-2.46.53-2.94,1.94l0,0c-1.55.58-3.11,1.12-3.84,2.81l0,0a5.74,5.74,0,0,1-4.21-.58c-3-1.44-6.19-3-9.78-2.7a27.66,27.66,0,0,0-10.46,2.94,2.21,2.21,0,0,1-3.26-.72c-4.55-6-9.6-11.36-16.19-15.3-7.2-4.3-14.71-7.7-23-8.39-11-.92-21.85-.39-31.91,4.93-1.45.76-3,1.45-3.41,3.35l-.51.41c-2.24-.23-3.34,1.32-4.46,2.84A46.53,46.53,0,0,0,59,115c-3.25,1.75-4.06,4.95-4.82,8.18h0c-1.39.31-1.47,1.34-1.33,2.48l-.18.87c-2,3.63-3.81,7.32-4.37,11.49q-2.1,5.49-4.19,11c-2.9,2.64-3.34,6.79-5.89,9.65l-.82.82A2.7,2.7,0,0,0,35,161.53a.27.27,0,0,0-.33.07A4,4,0,0,0,31.69,163H26.51c-1.62-.74-2.93-2.1-4.78-2.38h0c-.95-1.14-1.7-2.54-3.36-2.85v0c-2.62-3.17-5-2.89-6.73.83a9.73,9.73,0,0,0-.88,3.93,33.11,33.11,0,0,0,4.76,18.13C16.79,182.71,17.76,185,18.88,187.26Z"/><path class="cls-3" d="M18.88,187.26c-1.12-2.23-2.09-4.55-3.38-6.67a33.11,33.11,0,0,1-4.76-18.13,9.73,9.73,0,0,1,.88-3.93c1.74-3.72,4.11-4,6.73-.83a2.28,2.28,0,0,1-1.78-.46c-1.7-1-2.91-.34-3.64,1.31a8,8,0,0,0-.8,2.74A28.27,28.27,0,0,0,14,173.93c1.11,2.61,2.16,5.26,3.44,7.79a48.56,48.56,0,0,0,7.14,10.62,95.41,95.41,0,0,0,9.13,9.42A85.88,85.88,0,0,0,81.5,222.81a79.16,79.16,0,0,0,23.07-1,86.29,86.29,0,0,0,13.88-4.27c3-1.12,3.49-.86,3.41,2.38a155,155,0,0,0,1.36,21.41c.92,8,3.19,15.52,5.69,23a105.69,105.69,0,0,0,11.79,24.11c1.17,1.8,2.54,3.47,3.61,5.32,3.42,5.94,8.35,10.64,13,15.48,1.94,2,4.39,3.65,6.41,5.7,1.29,1.3,2.79,2.36,4.19,3.52s3.67,1.66,4.28,3.82a25,25,0,0,1-7.26-4.66c-2.15-1.76-3.84-4.11-6.08-5.69a34,34,0,0,1-7.39-7.32,93.77,93.77,0,0,0-6.89-7.37l-.11-.15a8.51,8.51,0,0,0-2-4c-4.9-5.61-7.81-12.38-11.14-18.9-2.18-4.25-3.46-8.88-5-13.42-2.81-8.59-5-17.25-4.9-26.38a6.29,6.29,0,0,0-1.33-4.18c0-3.09,0-6.18,0-9.27.11-1.71-.49-2.49-1.71-1.87-1.89.95-4,1.13-5.87,1.89-5.46,2.21-11.27,2.77-17,3.17-10.35.72-20.64-.09-30.54-3.65-1.34-.48-2.81-.64-4.12-1.18-4-1.64-8-3.17-11.8-5.15-2.85-1.49-5.56-3.29-8.48-4.71l-1.46-1.32c-1.45-1.32-3-2.58-4.32-4-2-2.06-4.91-3.06-6.53-5.49-2.65-4-6.48-6.92-9.1-10.89Z"/><path class="cls-3" d="M296.56,412.32a46.72,46.72,0,0,0,5.1-11.83c-1.13.36-1.07,1.84-2.19,2.13.17-3.66,2.66-6.33,4-9.47a.74.74,0,0,1,1.06-.24c.61.37.44,1,.28,1.49-.93,3-1.81,6.09-2.85,9.09a285.17,285.17,0,0,1-11.92,28.08,168.84,168.84,0,0,0-8.16,19.56c-2.74,8.43-3.44,16.67.62,25,1.23,2.52,2.71,3.41,5.26,3.39,8.3,0,16.62-.28,24.9.09,4.7.21,8-1.68,10.8-4.94A91.44,91.44,0,0,0,337.8,452a124.32,124.32,0,0,0,7.21-20.2c.89-3.6,2.3-7.06,2.86-10.79.59-4,1.46-7.94,2-11.95s1-7.85,1.7-11.75a75.64,75.64,0,0,0,.56-8.09c.73-11.47.37-23,.16-34.45,0-2.2-.14-4.44-.27-6.66-.08-1.31.58-1.79,1.87-1.91a26.33,26.33,0,0,0,8.93-2.13c1.3-.61,2.43-1.94,4.12-1.6-1.49,2.89-4.55,3.58-7.14,4-7.88,1.42-6.32.81-6.35,7.66,0,11.26.24,22.54-.12,33.79a107.05,107.05,0,0,1-1.11,13.77c-.6,3.71-1,7.53-1.66,11.26-.79,4.69-1.57,9.39-2.74,14a138.6,138.6,0,0,1-10,28.32c-4.11,8.27-8.82,16.26-15.71,22.64a9.07,9.07,0,0,1-6.51,2.54c-9.5-.1-19,0-28.52,0-3.89,0-4.41-.84-6.06-4.36-2.31-4.9-2.48-9.95-2.5-15.16a29.93,29.93,0,0,1,2-10c2.22-6.31,4.39-12.67,7.78-18.51a5.27,5.27,0,0,0,.82-4.11c2.71-3.83,3.81-8.46,6.14-12.48A10.7,10.7,0,0,0,296.56,412.32Z"/><path class="cls-2" d="M40.6,209.48c2.92,1.42,5.63,3.22,8.48,4.71,3.8,2,7.83,3.51,11.8,5.15,1.31.54,2.78.7,4.12,1.18,9.9,3.56,20.19,4.37,30.54,3.65,5.72-.4,11.53-1,17-3.17,1.9-.76,4-.94,5.87-1.89,1.22-.62,1.82.16,1.71,1.87-2.52-1.11-4.89.16-7,.93-3.64,1.32-7.39,1.64-11.07,2.48-6.43,1.48-12.87,1-19.24.71a65.65,65.65,0,0,1-16-2.86A138.21,138.21,0,0,1,50.3,216a103.71,103.71,0,0,1-9.45-5.46A.71.71,0,0,1,40.6,209.48Z"/><path class="cls-2" d="M120.13,230.25a6.29,6.29,0,0,1,1.33,4.18c-.15,9.13,2.09,17.79,4.9,26.38,1.49,4.54,2.77,9.17,5,13.42,3.33,6.52,6.24,13.29,11.14,18.9a8.51,8.51,0,0,1,2,4,.74.74,0,0,1-1-.32c-2.82-4.87-6.42-9.2-9.09-14.22a102.4,102.4,0,0,1-7.8-17.63c-1.66-5.35-3.59-10.63-4.64-16.2a71.38,71.38,0,0,1-1.38-15.13C120.59,232.42,118.77,231.53,120.13,230.25Z"/><path class="cls-2" d="M19.19,187.79c2.62,4,6.45,6.92,9.1,10.89,1.62,2.43,4.53,3.43,6.53,5.49,1.36,1.41,2.87,2.67,4.32,4-1.1.5-1.8-.26-2.45-.89-2.35-2.26-5.3-3.92-7.44-6.24-3.52-3.81-7.28-7.5-10.13-11.91A1.06,1.06,0,0,1,19.19,187.79Z"/><path class="cls-4" d="M366.92,342.46c-1.69-.34-2.82,1-4.12,1.6a26.33,26.33,0,0,1-8.93,2.13c-1.29.12-1.95.6-1.87,1.91.13,2.22.23,4.46.27,6.66.21,11.48.57,23-.16,34.45a75.64,75.64,0,0,1-.56,8.09c-.67,3.9-1.2,7.82-1.7,11.75s-1.39,8-2,11.95c-.56,3.73-2,7.19-2.86,10.79A124.32,124.32,0,0,1,337.8,452a91.44,91.44,0,0,1-14.29,22.67c-2.8,3.26-6.1,5.15-10.8,4.94-8.28-.37-16.6-.13-24.9-.09-2.55,0-4-.87-5.26-3.39-4.06-8.32-3.36-16.56-.62-25a168.84,168.84,0,0,1,8.16-19.56A285.17,285.17,0,0,0,302,403.49c1-3,1.92-6.05,2.85-9.09.16-.52.33-1.12-.28-1.49a.74.74,0,0,0-1.06.24c-1.39,3.14-3.88,5.81-4,9.47a3,3,0,0,1-.9,1.78c-2.17,0-2.19,1.43-2,3-.31.66-1,.83-1.52,1.21-2.18.24-2.78,2.28-3.81,3.63-5.32,6.94-12.69,10.45-20.83,12.53-6.17,1.58-12-.16-17.67-2.68-9.91-4.4-16-12-19.59-22a38,38,0,0,1-2.47-16.87c.84-8.16,3.65-15.39,11-19.81,3.87-2.31,8.23-3.52,12.83-2.52,6.83,1.48,9.85,6.4,11.08,12.78a5.23,5.23,0,0,0,1.07,2.6c1.12,1.28,1.94,1.53,3.47.06,5.46-5.25,6.37-12.44,8.3-19.11a33.64,33.64,0,0,0,1.26-9.64c0-3.27.31-3.24-3-3.25-5.34,0-10.55,1.41-15.87,1.4a211.48,211.48,0,0,1-22.61-1.15A241.52,241.52,0,0,1,214,340.18c-4.11-.88-8-2.56-12-3.9a123.59,123.59,0,0,1-23.51-11,16.55,16.55,0,0,0-5.79-2.54l-.46-.41c-.61-2.16-2.81-2.61-4.28-3.82s-2.9-2.22-4.19-3.52c-2-2.05-4.47-3.69-6.41-5.7-4.67-4.84-9.6-9.54-13-15.48-1.07-1.85-2.44-3.52-3.61-5.32a105.69,105.69,0,0,1-11.79-24.11c-2.5-7.53-4.77-15.09-5.69-23a155,155,0,0,1-1.36-21.41c.08-3.24-.36-3.5-3.41-2.38a86.29,86.29,0,0,1-13.88,4.27,79.16,79.16,0,0,1-23.07,1,85.88,85.88,0,0,1-47.83-21.05,95.41,95.41,0,0,1-9.13-9.42,48.56,48.56,0,0,1-7.14-10.62c-1.28-2.53-2.33-5.18-3.44-7.79a28.27,28.27,0,0,1-1.83-12.64,8,8,0,0,1,.8-2.74c.73-1.65,1.94-2.32,3.64-1.31a2.28,2.28,0,0,0,1.78.46v0c.52,1.65,1.38,2.91,3.36,2.85h0c1,1.94,2.52,2.93,4.78,2.38h5.18c1.68,1.06,2.46.16,2.95-1.36a.27.27,0,0,1,.33-.07c1.44.07,2.07-.85,2.47-2.05l.82-.82c3.92-2,4.46-6.11,5.89-9.65s2.79-7.33,4.19-11c.29-.09.78-.1.84-.26,1.28-3.54,2.41-7.12,4-10.53.06-.12-.32-.46-.49-.7l.18-.87a2.58,2.58,0,0,0,1.33-2.48h0c2-2.49,3.12-5.51,4.82-8.18A46.53,46.53,0,0,1,69,103.5c2-.06,3.32-1.34,4.46-2.84l.51-.41c3.65-3,8.11-4.38,12.44-5.57a59.34,59.34,0,0,1,28.53-.34,49.88,49.88,0,0,1,14.59,6.06,55.73,55.73,0,0,1,18,16c1.21,1.71,2.33,2.42,4.72,1.16,6.8-3.57,13.74-4,20.47.53,1.48,1,2.93.35,3.55-1.38l0,0a3.77,3.77,0,0,0,3.83-2.82l0,0a2.4,2.4,0,0,0,2.94-1.94l.65-.63a3.64,3.64,0,0,0,2.43-.79c4.62-2.74,9-5.78,13.85-8.23.94-.48,2.66-.52,2.65-2.28l.12.1-.1-.12a5,5,0,0,0,3.82-.89,81.18,81.18,0,0,1,9.63-4.52A182.85,182.85,0,0,1,239,86.7c1.43-.36,3.43-.21,4.19-2.13l1.5-.06c1.19.4,2.19.27,2.8-1l.56,0a3.23,3.23,0,0,0,2.3.31c5-.53,9.81-2,14.83-2.54,6.87-.77,13.74-.88,20.6-1.23,4.1-.21,4.76-.71,4.78-4.92a1.29,1.29,0,0,1,.87-.91c.83.08,1.18-.24.88-1.08l.13.1-.12-.1c.23,0,.57,0,.66-.12a14.09,14.09,0,0,1,5.94-4.94c2.34-1.08,2.86-3,1.83-5.35a9.88,9.88,0,0,1-.56-3.75c-.15-4.45.4-8.91-.3-13.35.12-.35.25-.69.37-1,1.34-.42,1.09-1.16.4-2,.07-.29.15-.57.22-.86a1.15,1.15,0,0,0,1.25-.86c.73-2.33,1.7-4.61,1.76-7.11l.33-.68A6.71,6.71,0,0,0,306.72,28a.16.16,0,0,1,.1-.2c1.33-.1,2.11-.67,1.85-2.13,1.23-2.54,3.4-4.22,5.49-6,2.32.26,3.69-1.56,5.08-2.75,5.57-4.78,12.39-6.42,19.21-7.66A53.15,53.15,0,0,1,353.63,9a56.37,56.37,0,0,1,28.55,11.38,3.15,3.15,0,0,0,2.42.72.75.75,0,0,1,.62.68,1.09,1.09,0,0,0,.47,1.45c2.09.95,3.33,2.94,5.13,4.17,1.23.84,2,2.65,3.94,2.28a4.57,4.57,0,0,1,1.88,1.84c.35,1.93,1.71,2.45,3.43,2.46l.42.4c-.16,2,1.76,2.38,2.83,3.14,2.89,2,5.87,4.1,9.75,3.72,2.91-.28,5.08-3.07,4.07-5.33V34.56c.92-.67.53-1.52.35-2.36a25.17,25.17,0,0,1-.72-3.7c-.2-3.36,1.45-4.45,4.58-3.15,1.16.48,2.21,1.3,3.58,1l.47.39c-.06,1.47.83,1.65,2,1.5A18.25,18.25,0,0,1,431.16,32c-.15,1.14,0,2,1.47,2A2.79,2.79,0,0,1,434,35.41a4.65,4.65,0,0,0,.68,3c1.54,3.48,3.29,6.91,4.5,10.52,2,6,1.68,12.25,1.49,18.45-.16,5.32-2,10.24-4.1,15.06-1.16,2.71-2.62,5.29-3.94,7.94.07.37.06.71-.39.84-1.93.12-2,1.5-2,2.94A16.88,16.88,0,0,1,427,97.41c-1.7-.17-1.88,1.52-2.75,2.32a74.18,74.18,0,0,1-22.42,14.16c-2.5,1-5.06,1.85-7.55,2.88-.94.39-2.4.85-1.59,2.33s1.68,2.9,3.58,3.12a7.5,7.5,0,0,1,2.3,2.39,2.07,2.07,0,0,0,.64,1.94,130.1,130.1,0,0,1,11.75,16.06,125.83,125.83,0,0,1,10.4,22.4c.54,1.47.38,3.36,2.08,4.29q.81,3.55,1.64,7.09c-1.49,1.11-.19,2.4-.06,3.51.17,1.43-.25,3.19,1.27,4.27.07.6.15,1.21.22,1.81-1,1.79.32,3.44.34,5.19.06,10.42.22,20.82-2.24,31.08-.37,1.54-1.63,3.31-.45,5.1-.08.61-.16,1.22-.23,1.83-.13.22-.26.44-.38.66,0,.42-.07.84-.1,1.26-1.93,1.72-2.1,4.27-2.92,6.49-.35.95-1.61,2-.24,3.19l-3.51,8.07c-.68,0-.88.5-1.07,1.08a50.28,50.28,0,0,1-3.73,7.67c-1.75,3.24-3.24,6.62-4.84,9.94-1.58,1.72-1.92,4.26-3.84,5.76a13.29,13.29,0,0,0-4.8,6.68l-3,3.43a18.69,18.69,0,0,0-5.56,5.12c-2.47,3.49-5.62,6.14-8.83,8.85-1.74,1.46-3.89,2.78-4.58,5.24h0c-3.31,1.12-4,2-2.88,5.15a35.76,35.76,0,0,1,2.39,14c-.29,7.1-2.56,13.31-7.6,18.42-.64.64-1.64,1.11-1.48,2.29Zm3.81-40.52a.33.33,0,0,0-.11-.42c.95.34,1.31-.36,1.72-1a6.21,6.21,0,0,0,2.78-2.39l1.08-.94a11.22,11.22,0,0,0,3.88-3.59,28.43,28.43,0,0,0,5.18-5.16,15.6,15.6,0,0,0,4-4.38l1-1.1a4.41,4.41,0,0,0,1.91-2.24l.5-.63A11.11,11.11,0,0,0,396,276l.5-.63a1.45,1.45,0,0,0,.95-1.28l.48-.65a5.51,5.51,0,0,0,2-2.69l.44-.67a8.69,8.69,0,0,0,2.41-3.64l.46-.67a.61.61,0,0,0,.5-.79l.47-.67c3-3.84,4.76-8.37,7.26-12.49,1-.14,1.27-.89.77-1.52s-1.39-.65-1.76.42a15.1,15.1,0,0,1-4.21,2.55l-6.07,2.34-1.39.22c-3.58-.36-7.24.46-10.75-.76-.19-.72-.48-1.08-1.08-.3a25.77,25.77,0,0,1-9-2.94c-.13-.83-.56-1.07-1.31-.65-3.28-1-5.85-3.37-9-4.58l-.63-.46a.63.63,0,0,0-.81-.51l-.63-.44a5.77,5.77,0,0,0-2.73-1.93l-.61-.49a20.26,20.26,0,0,0-4.7-3.8,3,3,0,0,0-1.37-1.22,71.53,71.53,0,0,0-6.6-6.66l-1.43-1.58a4.6,4.6,0,0,0-1.89-2.28l-.5-.61a2.66,2.66,0,0,0-1.44-1.78l-.47-.63a5.76,5.76,0,0,0-1.95-2.69l-.49-.64c-.36-1.34-1.35-2.31-2.06-3.44a103.18,103.18,0,0,1-10.18-20c.44-.72.25-1.16-.57-1.33a70.6,70.6,0,0,1-4.44-13.81c.79-.59.43-.88-.29-1.08-.21-1.08-.42-2.16-.62-3.24.73-.58.42-.88-.29-1.08a12.57,12.57,0,0,1-.7-4.67q1.24-1.05-.3-1.56l-.19-1.32c.76-.77.9-1.47-.21-2-.09-1.56-.18-3.11-.28-4.67a17.37,17.37,0,0,0,0-9.72,22.11,22.11,0,0,1,.27-5.63c1-.4,1-.92.22-1.56.07-.6.13-1.21.19-1.81,1.23-.5,1.07-1.22.32-2l.25-1.8c.72-.23.94-.56.21-1.08l.15-.85c1-.3,1.18-.8.37-1.54v-.83c.24-.18.49-.38.27-.71s-.63-.27-1-.14l-2.06-.29c-.36-1-.88-1.11-1.56-.27l-2.27-.3c-.27-.74-.62-.87-1.08-.15l-1.8-.28c-.21-.73-.53-1-1.08-.24l-.84-.18c-.21-.77-.53-1-1.08-.24a8.92,8.92,0,0,1-3.71-.71c-.18-.74-.48-1.07-1.08-.31a29.44,29.44,0,0,1-6.6-1.6c-.59-1.06-1.37-1.49-2.51-.79l-.84-.19c-.23-.78-.68-.93-1.36-.52a103.13,103.13,0,0,1-25-11c-.09-.53-.36-.86-.93-.74s-.55.47-.5.88v0c-.83,0-1.19.23-.45,1a2.71,2.71,0,0,1-.55,1.82c-.72.13-1.19.35-.4,1-.24.83-.42,1.68-.72,2.48-1.13,2.93-2.29,5.83-3.44,8.75l-.68,1.52a4.62,4.62,0,0,0-1.4,2.77L259.6,139a1.8,1.8,0,0,0-.94,1.78,2.88,2.88,0,0,0-1,1.62c-.41.1-.61.34-.48.78a10.71,10.71,0,0,0-1.9,3.05c-.43.07-.62.3-.5.73l-.44.74c-.41.06-.6.28-.49.7l-.48.73a.54.54,0,0,0-.52.71l-.48.67a1.31,1.31,0,0,0-.91,1.25l-.49.72a.53.53,0,0,0-.53.71l-.47.67a1.34,1.34,0,0,0-1,1.28l-1.36,1.64c-.42.07-.66.28-.58.74l-1.33,1.65a1.41,1.41,0,0,0-1.05,1.24l-3.3,3.51-.69.49c-.39,0-.8.16-.64.65,0,.17.47.22.73.32l.59.11a.29.29,0,0,0,.29.23c.11.38.32.62.76.52l.68.48a1.33,1.33,0,0,0,1.25.92l.7.47a.57.57,0,0,0,.72.57l1.69,1.36a1.33,1.33,0,0,0,1.23,1l1.6,1.38a1.4,1.4,0,0,0,1.25,1l6.06,6.08c-.06.46.17.68.6.74l2.77,3.09c-.07.45.16.67.58.74l.9,1.19a1.39,1.39,0,0,0,.94,1.26c.17.22.34.43.5.65-.08.44.15.64.53.74l.9,1.19c-.09.43.12.66.53.75l2.34,3.54c-.13.45.09.67.49.79a2.83,2.83,0,0,0,1,1.56c-.15.44,0,.69.44.83l.47.69c.23.57.41,1.17.69,1.72,2.47,4.94,4.94,9.88,6.41,15.24-.72.66-.3.91.39,1.07l1.62,6.11c-.78.6-.46.9.29,1.09l.58.7.22,1.36c-.27,2.83,1.18,5.48.85,8.31-.71.5-.66.88.18,1.14l.32.11c-.43,1.52.16,3.05-.07,4.56a7.77,7.77,0,0,0,0,6.37l.05,6a2.07,2.07,0,0,1-.33.1c-.82.26-.87.64-.18,1.14l-.26,2.23c-.74.23-1,.55-.21,1.08-.1.6-.21,1.19-.31,1.79-.73.23-.95.56-.23,1.09a5.44,5.44,0,0,1-.63,2.76c-1,.31-1.13.84-.33,1.55.25,1.44-.91,2.62-.76,4-.13.45-.25.9-.38,1.35-.69.34-.53,1.19-1,1.68-.71.19-1,.49-.31,1.08a11.67,11.67,0,0,1-1.64,4c-1.28-.15-1-.88-.89-1.84s1.57-1.59.48-2.68a2.69,2.69,0,0,1,.59-1.89,5.25,5.25,0,0,0,1.74-5.32c.1-.46.19-.91.29-1.37.72-.2,1-.49.22-1l.25-.91c.76-.19,1-.49.22-1a3,3,0,0,1,.29-1.85c.72-.21,1-.51.21-1l.14-.93c1-.28,1.21-.75.34-1.47a12,12,0,0,1,.27-3.78c.71-.21,1-.52.2-1l0-12.9c.77-.46.57-.78-.15-1l-1.29-10c.79-.52.57-.82-.21-1l-.24-.9c.76-.55.48-.84-.25-1l-.23-.91c.75-.54.5-.83-.24-1a5,5,0,0,1-.71-2.35c.75-.54.47-.83-.25-1l-.24-.91c.87-.69.3-.85-.36-1l-1.53-4.3c.82-.7.27-.86-.39-1a2.48,2.48,0,0,1-.26-.4A93,93,0,0,0,240.54,168c-1.38-1-2.18-1-3.41.21-2.13,2.15-4.46,4.09-6.75,6.07-.57.49-1.09.93-1.08,1.74-.25.17-.48.38-.22.68s.64.21,1,.06a62.75,62.75,0,0,1,28.79,29.61c-.39.72-.24,1.19.63,1.3a15.91,15.91,0,0,1,1.79,4.45c-.42.71-.29,1.17.58,1.32.29,1,.59,2,.88,3-.43.66-.35,1.13.48,1.34l.2.92c-.94,1.26-.38,2.16.72,2.92l.27,1.38c-.81.79-1,1.49.29,2l.2.91c-.85.54-.51.82.22,1l.27,3.3c-.87.61-.81,1.11.17,1.5a26.22,26.22,0,0,1,0,7.61c-.75.24-.93.57-.14,1-.08,1.26-.16,2.52-.23,3.79-1.41,1.07-1.87,2.32-.73,3.88l-.25,1.38c-1,.62-1.57,1.33-.69,2.46l-.3,1.38c-.95.6-1.47,1.33-.75,2.44a16.66,16.66,0,0,1-1.54,4.29c-.85.15-1,.61-.6,1.32a60.13,60.13,0,0,1-25.41,29.2c-.77-.34-1.22-.15-1.27.74A41.34,41.34,0,0,1,223.06,296c-.62-.84-.85-.4-1,.31a8.63,8.63,0,0,1-3.79,1.18c-1.11-.91-1.82-.27-2.46.63l-1.38.26c-1.73-.42-3.41-.61-4.84.78l-.92.18c-.33-.59-.91-.56-1.46-.56h-11.5c-.55,0-1.13,0-1.46.56l-.92-.19c-.51-1.26-1.19-1.12-2-.25l-.92-.2c-.28-1.06-.77-1.2-1.47-.32a5,5,0,0,1-2.86-.56c-.2-1.06-.65-1.3-1.45-.45l-2.37-.57c-.56-1.34-1.59-1.38-2.77-1l-1.08-.38c-.11-.69-.27-1.23-1-.37a2.12,2.12,0,0,1-1.44-.53c-.09-.91-.54-1.08-1.3-.64a62.35,62.35,0,0,1-22.56-16.11,61.43,61.43,0,0,1-12.92-21.32c.42-.67.32-1.14-.51-1.34a22.79,22.79,0,0,1-1.58-5.24c.85-.75.63-1.21-.39-1.46l-.17-.92c.82-.54.5-.82-.23-1l-.25-1.39c.89-.63.42-.85-.3-1a2.86,2.86,0,0,1-.16-1.89c.87-.62.78-1.12-.2-1.5a7.67,7.67,0,0,1-.28-3.77,9.53,9.53,0,0,0,0-7.25,10.37,10.37,0,0,1,.24-4.26c1-.35,1.13-.84.24-1.49l.14-1.41c1.06-.25,1.25-.73.37-1.47l.2-1.39c.73-.19,1-.47.23-1l.2-.92c.69-.16,1.17-.38.29-1l.24-.9c.75-.17,1-.46.26-1a3.16,3.16,0,0,1,.63-1.89c.73-.08,1.1-.32.39-1l-.06-1.23c-.56-1.66-1.35-1.59-2.31-.31l-1.86.26c-1.2-.77-2.37-1.21-3.41.24-1.9,1.52-4.64,1.93-5.84,4.39-.72.12-.81.65-.81,1.25v13.38c0,.6.11,1.12.82,1.24l.26,2.82c-.85.73-1,1.4.15,2l.27,2.34c-.87.7-.71,1.18.32,1.48l.66,5.23c-.86.62-.41.85.3,1l.21,1.4c-.84.53-.52.82.22,1l.26,1.39c-.87,1.11-.25,1.82.66,2.46l.68,2.83c-.73.61-.4.87.32,1l1.9,6.34c-.41.67-.31,1.14.51,1.33q1.67,4.14,3.32,8.26c-.4.73-.25,1.2.63,1.31.93,1.82,1.78,3.69,2.82,5.46,1.88,3.2,3.29,6.71,6,9.41l.93,2.11c-.22.76,0,1.2.85,1.22a.77.77,0,0,1,.56.73,3.86,3.86,0,0,0,2.72,3.62.84.84,0,0,1,.6.76c-.16,1.05.31,1.58,1.36,1.62a1.79,1.79,0,0,1,1,1.22A2.54,2.54,0,0,0,155,302.1a.8.8,0,0,1,.61.71,2.56,2.56,0,0,0,2.62,2.67,13.44,13.44,0,0,1,3.49,3.32,2.59,2.59,0,0,0,.24.88c1.78,2.35,4.52,3.2,7,4.36,7.28,3.34,15,5.13,22.84,6.57a8.65,8.65,0,0,0,5.34-.21,4.51,4.51,0,0,1,2.39.07c1.52,1.11,5.26,1.11,6.77,0a7.84,7.84,0,0,1,3.34-.09c1.32.88,2.83.53,4.14.28,9.17-1.7,18.12-4.09,26.34-8.67,1-.55,2.23-.88,2.59-2.2l.07-.15h.16a3.74,3.74,0,0,0,3.61-2.26l.06-.15h.16c1.14.23,2.31-.87,3.43.07l-.29.73-1.17.9c-.44-.11-.68.1-.77.51l-.67.48c-.43-.13-.66.08-.78.47l-.7.41a2.22,2.22,0,0,0-1.67,1.06l-.69.46c-.43-.14-.67.06-.81.45l-.66.42a8.8,8.8,0,0,0-3.74,1.86l-1,.58c-.77-.11-1.35.39-2,.65-4.11,1.64-8.19,3.37-12.59,4.13-.6-.77-.89-.42-1.08.3l-.71.53-1.37.26c-1.24-.44-2.34.56-3.55.35-.49-.72-.83-.56-1.09.17a11,11,0,0,1-3.71.36c-.64-.85-1.17-.8-1.56.22a22.4,22.4,0,0,1-5.11.22,2.16,2.16,0,0,0-3.09,0,11.69,11.69,0,0,1-3.68-.21c-1-1.41-2.25-1-3.47-.25a6.59,6.59,0,0,1-2.75-.29c-.25-.74-.59-.95-1.09-.18l-1.79-.25c-.22-.76-.54-1-1.09-.23a9.22,9.22,0,0,1-3.7-.73c-.19-.71-.49-1-1.08-.31-3-.11-5.6-1.7-8.46-2.36-.38-.61-.8-1.33-1.6-.6s0,1.11.39,1.56a2.11,2.11,0,0,0,2.06.85c1.07.4,1.82,1.42,3,1.56a.3.3,0,0,0,.3.19,2.15,2.15,0,0,0,1.74,1l.68.46a2,2,0,0,0,1.73,1l1.64.9c.12.58.66.63,1.06.85a148,148,0,0,0,17.6,7.95c.12.69.33,1.19,1,.43a3.1,3.1,0,0,1,1.81.58c.56,1.11,1.36,1.5,2.5.83a2.66,2.66,0,0,1,1.82.57c.15.75.41,1.16,1.07.35a4.31,4.31,0,0,1,2.29.62c.15.74.41,1.16,1.07.34a13.31,13.31,0,0,1,4.67,1.16c.32,1,.85,1.09,1.55.32l1.33.23c.21.76.54,1,1.1.25l.8.19c.22.76.55,1,1.09.22l1.79.27c.37,1,.91,1,1.59.29l.81.14c.35,1.05.87,1.15,1.56.28l2.67-.09a3.37,3.37,0,0,1,.09.34c.22.83.59,1,1.12.22l1.76.2c.69,1.34,1.57,1.08,2.51.3l4.67.33c.8,1.15,1.67.91,2.57.13h16.07c.76.75,1.47.95,2.09-.15l6.11-.32c.67.85,1.19.77,1.56-.26l2.27-.24c.48.76.83.6,1.09-.15a8.4,8.4,0,0,1,3.23-.27c.84.75,1.57.93,2-.38l.86-.15c.5.76.84.54,1.08-.19l2.27-.29c.68.84,1.2.78,1.56-.26l.84-.16c.71.78.94.33,1.05-.41l.36-1.82c.63-.46.61-.83-.15-1.09a26.38,26.38,0,0,1,0-10c.74-.27.87-.62.14-1.08.09-.76.19-1.52.28-2.28,1-.64,1.45-1.41.7-2.52a7.33,7.33,0,0,1,.61-2.73c1.06-3.29,2.79-6.28,4.17-9.43l.49-.68c.39-.11.6-.34.5-.77l.48-.64a1.52,1.52,0,0,0,.93-1.27l.52-.62,4.2-4.25.91-.73c2.14-.86,3.76-2.73,6.15-3.09.72.38,1.17.17,1.33-.63a5.22,5.22,0,0,1,2.77-.58c1,.71,1.85,1,2.51-.35H316c.67,1.35,1.56,1.06,2.5.32,2.62-.13,4.56,1.73,6.9,2.4l1.65,1.33.45.74c.07.5.32.87.87.78s.61-.56.52-1.05c.7-3,2.67-5.25,4.31-7.7l.81-.81c2.13-1.13,3.89-3,6.42-3.34,1.1.71,1.86.18,2.52-.7,2.13-.74,4.34-.05,6.5-.39,0,.11.07.22.1.33.21.8.56,1,1.12.26,2.12.1,3.87,1.44,5.93,1.74l1.11.64a14.1,14.1,0,0,0,3.65,2.41l1.14.89a16.51,16.51,0,0,0,3.61,3.52l1.8,2.16c-.07.44.14.66.55.74.46.71.92,1.42,1.39,2.13l0,.56c-.06.36-.12.76.31.92S370.66,302.27,370.73,301.94Zm-67-221.8a.25.25,0,0,1,.3.19.8.8,0,0,0,.79.73A137.36,137.36,0,0,1,331,85.81c1.2.35,2.32-.2,2.22-1.43-.25-3.1-.38-6.33-3-8.63l-.26-.55c.06-.55-.16-.87-.73-.9l-1.64-1.66c0-.55-.35-.77-.88-.72l-.55-.37c-2-1.71-4.14-2.82-6.85-2.4l-.86-.07c-.48-.73-1-.73-1.43,0l-.84.06a7.17,7.17,0,0,0-5.89,2l-.5.3c-.53-.09-.88.09-.95.66l-2.68,2.65c-.53.07-.71.4-.64.91l-.35.53C304.23,77.36,302.75,78.3,303.75,80.14ZM174.12,132.77c.09-.51-.08-.85-.62-.94a19.41,19.41,0,0,0-7.49-5.69,4.14,4.14,0,0,0-3.94-.91h-2.74a8,8,0,0,0-6.33,1.93q-2,1.62-4.09,3.23a.68.68,0,0,0-.68.85l-1.34,2a7.63,7.63,0,0,0-1.91,5.88v3.68c.1,4.76,2.61,8.21,6.18,11,6.17,4.8,15.95,4,20.58-1.67q1.7-2.44,3.37-4.91a12.48,12.48,0,0,0,0-12.51A4.19,4.19,0,0,1,174.12,132.77ZM423,210.55c0-.4.07-.8.11-1.19.43-.22.38-.65.42-1a71.57,71.57,0,0,0,.06-10.76c-.87-27.71-11-51.56-29.75-71.85a2.11,2.11,0,0,0-2.9-.58c-2.45,1.16-4.94,2.27-7.48,3.21-2,.75-1.73,1.45-.31,2.55a48.05,48.05,0,0,1,7.72,7.83c12,14.73,17.92,31.74,18.55,50.58.47,13.8-2.24,26.93-10.51,38.34-7.14,9.85-16.58,15.53-29.17,14.84A1.75,1.75,0,0,0,368,243c1.64,1.91,4,2.78,6.05,4,7.11,4.05,14.58,7,22.95,6.36,4-.29,7.83-1.16,11-3.84l.57-.4c.52.15.8,0,.83-.59l1.1-.8c.54.12.81-.09.81-.64a13.74,13.74,0,0,0,3.52-3.57c.76-.07.7-.77.88-1.23a91.57,91.57,0,0,0,4.41-13.58c.6-2.5,1.64-4.93,1.45-7.58l.15-1.12A21.5,21.5,0,0,0,423,210.55ZM284.23,83.23c-16.52-.09-35.72,3.21-54.39,9.57a173.7,173.7,0,0,0-55.41,30.74c-2.32,1.92-2.33,1.9-.28,3.86,10.12,9.64,6.27,27.62-7.21,31.46-4.88,1.39-6.27,3.33-7.09,8.12a64,64,0,0,1-21.52,38.26c-.46.4-1.22.78-1,1.5s1.1.41,1.68.33c6.08-.91,12.18-1.65,18.21-2.86,20.88-4.17,40.62-11.29,58.42-23.13,24.4-16.22,42.1-37.68,50.57-66.13.61-2.06,1.37-1.83,2.84-.93a116.46,116.46,0,0,0,24.58,11.19,145.46,145.46,0,0,0,56.44,7.08,110.46,110.46,0,0,0,37.93-9.4c1.53-.7,1.79-1.3.45-2.54a130.11,130.11,0,0,0-26.83-19.17C338.5,88.73,313.65,83.24,284.23,83.23ZM347.1,11.81a47.3,47.3,0,0,0-16.89,2.92c-22.13,8.45-31.39,32.07-24.57,52.59.63,1.87,1.24,1.91,2.84,1a17.41,17.41,0,0,1,18.65-.06,17.22,17.22,0,0,1,9,15.86c0,2.46,1,3.15,2.91,3.77a134.94,134.94,0,0,1,20.58,8.43,132.56,132.56,0,0,1,26.89,17.82,2.51,2.51,0,0,0,2.58.75c13.53-4,25.87-10.07,35.7-20.52,15.51-16.49,17.4-40.43,4.58-58.58a23.78,23.78,0,0,0-8-7.47c-.57-.31-1.15-.67-1.75-.14s-.22,1-.06,1.57a36,36,0,0,1,1.12,3.9c1.14,6.51-3.74,11.53-10.28,10.61-3.27-.46-6-2.23-8.63-4-5.79-3.75-10.82-8.45-16-12.94C374.66,17.71,362.09,11.77,347.1,11.81ZM291.58,331.27a34.19,34.19,0,0,0,1.37,10.4c3.74,13.24,16.93,18.05,28.42,10.5,16.42-10.79,16.91-35.55,6.69-48.12-4.34-5.33-9.87-7.73-16.78-5.74a21.82,21.82,0,0,0-10.56,7.13C294.32,312.85,291.73,321.64,291.58,331.27Zm81.28-11.33c-.81-11.45-5.92-21.25-16.32-27.79s-20.69-2.79-24.75,8.69a2.93,2.93,0,0,0,.23,2.92c5.85,8.67,7.2,18.25,5.57,28.39a3.71,3.71,0,0,0,.47,3,18.77,18.77,0,0,0,22.66,6.21C369.52,337.26,372.48,329.74,372.86,319.94Zm-187.5-81.65a21.9,21.9,0,0,0,43.8-.08,21.9,21.9,0,1,0-43.8.08Zm141,154.09a106.32,106.32,0,0,0,20.32-2.18c1.24-.26,2.07-.69,2.11-2.11q.19-6.33.46-12.68c.06-1.25-.48-1.79-1.71-1.62-.87.12-1.73.29-2.6.42A99.59,99.59,0,0,1,303.46,372a101.23,101.23,0,0,1-20.95-8c-1.63-.85-2.36-.62-2.87,1.23a31.4,31.4,0,0,1-3.55,8.35c-.79,1.27-.73,2.09.5,3a77.29,77.29,0,0,0,7.3,5C297.21,389.32,311.72,392.37,326.39,392.38ZM370.78,193c.06-6.76-1.77-11.54-5.13-15.71-6.71-8.34-18.34-10.17-26-3.91-6.46,5.27-8.13,12.26-6.43,20.28,1.78,8.42,9.5,15.83,17.68,16.77A17.53,17.53,0,0,0,370.78,193ZM89.14,220.58a47.36,47.36,0,0,0,6-.41,69.17,69.17,0,0,0,34-11.32,63.09,63.09,0,0,0,22.13-24.59A59.66,59.66,0,0,0,157.88,162c.17-2-.6-2.78-2.5-3.33-7.37-2.12-11.79-7.25-13.12-14.63-1.22-6.82,1-12.77,6.38-17.33,1.26-1.07,1.4-2,.55-3.27-1.26-1.83-2.48-3.7-3.82-5.48A57.07,57.07,0,0,0,121.85,99.3a50,50,0,0,0-25.16-4,44.62,44.62,0,0,0-21.48,7.84c-11.32,8-18,19.29-22.44,32.2-2.39,7-4.48,14.16-8.19,20.63-3.46,6-8.25,10.47-15.72,10.37-4.52-.06-8.24-2.19-11.21-5.62-.62-.73-1.41-1.58-2.41-1.27s-.94,1.56-1.17,2.46a4,4,0,0,0,0,1.43,38.92,38.92,0,0,0,3.52,13.07A73.64,73.64,0,0,0,38.26,202C53.09,214,70.2,219.81,89.14,220.58Zm237.4,230.54a48.73,48.73,0,0,1,5.25-.36c2.81.09,4-1.45,4.92-3.87,1.68-4.48,3.36-9,4.73-13.55,3.76-12.52,5.73-25.36,6.95-38.34.22-2.4-.18-2.6-2.58-2a74.88,74.88,0,0,1-14.68,1.88c-6.78.23-13.56.21-20.27-1.11-1.23-.24-2.15-.21-2.57,1.28-4.1,14.52-10.81,27.95-17.24,41.5-.6,1.27-.49,2,.65,2.82C302.16,446.67,313.65,450.92,326.54,451.12Zm-63.67-29.05c8.37.06,13.45-1.67,18.08-4.73,8.63-5.69,14.05-14,18.29-23.17,1.29-2.79,1.27-2.87-1.63-3.81a67.3,67.3,0,0,1-21.52-11.24c-1.72-1.38-2.85-1.7-4.56.08-2,2.08-4.1,2.27-6,.75-1.28-1-2.12-.85-3.36,0-10.8,7.11-16.65,17.31-18.8,29.86a2.58,2.58,0,0,0,.69,2.42C250,418.31,257,421.94,262.87,422.07ZM304,464.93c-.05,6.42,3.3,8.85,8.6,6.27,4.43-2.16,7.61-5.76,10.32-9.74,1.07-1.56-.42-1.42-1.34-1.49a63.54,63.54,0,0,1-14.35-2.42c-1.21-.38-2-.22-2.28,1.19C304.59,460.85,303.89,462.92,304,464.93Zm27-113.31v.07c2.54-.25,5.09-.45,7.62-.77s5.05-.76,7.56-1.16c.94-.16,2-.23,2.12-1.51s-.15-2.57-1.65-3.11a24,24,0,0,1-9.23-5.81c-.66-.67-1.4-1-1.85.15a34.78,34.78,0,0,1-6.86,10.86c-.64.69-.54,1.35.61,1.36C329.88,351.7,330.44,351.65,331,351.62Zm-159.39-231c-.19-.16-.47-.42-.78-.64-4.9-3.5-13.38-3.2-18,.6-.59.49-1.18.94-.74,1.77s1.2.72,1.89.45a18.56,18.56,0,0,1,14,.23C169.13,123.52,171.75,121.81,171.6,120.65ZM297.8,80.06c.91.07,1.91.07,2.2-1a21.55,21.55,0,0,1,3.22-6.36c.69-1,.08-1.87-.53-2.6s-1.29-.24-1.93.11a17.25,17.25,0,0,0-6.54,6.15c-1.89,3-1.78,3.26,1.68,3.48C296.53,79.92,297.16,80,297.8,80.06Zm-64.06,310a41.27,41.27,0,0,0,1.83,7.26c.16.5.19,1.24.89,1.26s.74-.72.91-1.22a30.7,30.7,0,0,1,4-8.4c.47-.68.86-1.42,0-2.08a4.28,4.28,0,0,0-4.51-.7A4.7,4.7,0,0,0,233.74,390.05Zm54.95-47.66c-1.48.26-2.65.46-3.81.68-.45.09-1,.11-1.06.73s.44.83.89,1c1.66.53,3.33,1,5,1.51a.77.77,0,0,0,1-.33C291.22,345,289.48,342.39,288.69,342.39Z"/><path class="cls-3" d="M176.23,116.72c-.62,1.73-2.07,2.38-3.55,1.38-6.73-4.56-13.67-4.1-20.47-.53-2.39,1.26-3.51.55-4.72-1.16a55.73,55.73,0,0,0-18-16,49.88,49.88,0,0,0-14.59-6.06,59.34,59.34,0,0,0-28.53.34c-4.33,1.19-8.79,2.6-12.44,5.57.36-1.9,2-2.59,3.41-3.35,10.06-5.32,21-5.85,31.91-4.93,8.33.69,15.84,4.09,23,8.39,6.59,3.94,11.64,9.31,16.19,15.3a2.21,2.21,0,0,0,3.26.72,27.66,27.66,0,0,1,10.46-2.94c3.59-.35,6.74,1.26,9.78,2.7A5.74,5.74,0,0,0,176.23,116.72Z"/><path class="cls-3" d="M401.28,31.11a3.15,3.15,0,0,1-2.42-.71A56.37,56.37,0,0,0,370.32,19a53.51,53.51,0,0,0-15.18.25c-6.82,1.25-13.65,2.89-19.22,7.66-1.39,1.19-2.76,3-5.07,2.76,2.11-3.57,5.82-5.17,9.22-6.88a52.48,52.48,0,0,1,25.36-5.64,56.91,56.91,0,0,1,18.37,3.7,69.65,69.65,0,0,1,16.31,8.85C400.61,30.08,401.25,30.35,401.28,31.11Z"/><path class="cls-3" d="M432.64,90.35c1.32-2.65,2.78-5.23,3.94-7.94,2.07-4.82,3.94-9.74,4.1-15.06.19-6.2.51-12.47-1.49-18.45-1.21-3.61-3-7-4.5-10.52a4.65,4.65,0,0,1-.68-3c.57,0,.81.47,1,.89,4.19,7.94,7.06,16,7,25.37a55.73,55.73,0,0,1-6.33,25.6A5.56,5.56,0,0,1,432.64,90.35Z"/><path class="cls-3" d="M366.93,342.44c-.16-1.18.84-1.65,1.48-2.29,5-5.11,7.31-11.32,7.6-18.42a35.76,35.76,0,0,0-2.39-14c-1.14-3.14-.43-4,2.88-5.15-2.33,2.83-1.46,5.7-.45,8.82a29.88,29.88,0,0,1-.26,18.92,24,24,0,0,1-6.7,10.76C368.46,341.71,368,342.49,366.93,342.44Z"/><path class="cls-3" d="M290.58,75.17c0,4.21-.68,4.71-4.78,4.92-6.86.35-13.73.46-20.6,1.23-5,.57-9.84,2-14.83,2.54a3.23,3.23,0,0,1-2.3-.31c.74-1,1.93-1.08,3-1.24,8.5-1.32,16.9-3.15,25.63-3.09,3.53,0,7.18-.9,10.83-.87a2,2,0,0,0,1.92-1.53C289.66,76.17,289.69,75.36,290.58,75.17Z"/><path class="cls-3" d="M423.4,169.3c-1.7-.93-1.54-2.82-2.08-4.29a125.83,125.83,0,0,0-10.4-22.4,130.1,130.1,0,0,0-11.75-16.06,2.07,2.07,0,0,1-.64-1.94c3,1.58,4.27,4.63,6.23,7.06,8.21,10.15,13.72,21.73,17.76,34.06C422.9,166.86,424,167.9,423.4,169.3Z"/><path class="cls-3" d="M396.23,122.22c-1.9-.22-2.81-1.7-3.58-3.12s.65-1.94,1.59-2.33c2.49-1,5.05-1.87,7.55-2.88a74.18,74.18,0,0,0,22.42-14.16c.87-.8,1.05-2.49,2.75-2.32a2.44,2.44,0,0,1-.92,2.12,46.9,46.9,0,0,1-10.43,8.33c-4.09,2.31-7.92,5.08-12.39,6.72-2.39.87-4.73,1.89-7.11,2.81-1.83.71-2.58,1.62-.77,3.21A2,2,0,0,1,396.23,122.22Z"/><path class="cls-3" d="M243.21,84.57c-.76,1.92-2.76,1.77-4.19,2.13a182.85,182.85,0,0,0-22.9,7.83,81.18,81.18,0,0,0-9.63,4.52,5,5,0,0,1-3.82.89c0-.78.63-1.07,1.2-1.33,10-4.49,20-8.84,30.46-12A34.45,34.45,0,0,1,243.21,84.57Z"/><path class="cls-3" d="M424.12,227.35c-1.18-1.79.08-3.56.45-5.1,2.46-10.26,2.3-20.66,2.24-31.08,0-1.75-1.29-3.4-.34-5.19a3.49,3.49,0,0,1,1.39,3.29c0,6.77.22,13.56-.1,20.33a74.1,74.1,0,0,1-2,11.56C425.35,223.24,425.41,225.49,424.12,227.35Z"/><path class="cls-3" d="M376.5,302.62c.69-2.46,2.84-3.78,4.58-5.24,3.21-2.71,6.36-5.36,8.83-8.85a18.69,18.69,0,0,1,5.56-5.12c.7.35.39.78,0,1.09-3.85,3.28-6.25,7.89-10.13,11.09a90.65,90.65,0,0,0-7.57,6.55C377.5,302.44,376.94,302.47,376.5,302.62Z"/><path class="cls-3" d="M299.91,45.67c.7,4.44.15,8.9.3,13.35a9.88,9.88,0,0,0,.56,3.75c1,2.36.51,4.27-1.83,5.35A14.09,14.09,0,0,0,293,73.06c-.09.13-.43.09-.66.12.68-3,2.9-4.72,5.44-5.89,2.2-1,2.94-2.23,1.92-4.49-.89-2-.5-4.09-.54-6.15-.05-2.88,0-5.75,0-8.63C299.19,47.19,298.9,46.21,299.91,45.67Z"/><path class="cls-3" d="M433.82,45.93c1,2.26-1.15,5-4.07,5.33-3.87.38-6.86-1.68-9.74-3.72-1.08-.76-3-1.13-2.84-3.14,2.92,1.58,5.49,3.76,8.57,5.08,2.78,1.19,5.42.78,6.94-1.26A14,14,0,0,0,433.82,45.93Z"/><path class="cls-3" d="M202.65,100c0,1.76-1.71,1.8-2.65,2.28-4.8,2.45-9.23,5.49-13.85,8.23a3.64,3.64,0,0,1-2.43.79,1.19,1.19,0,0,1,.76-1.11c5.81-3.24,11.09-7.39,17.26-10A5.24,5.24,0,0,1,202.65,100Z"/><path class="cls-3" d="M407.1,267.54c1.6-3.32,3.09-6.7,4.84-9.94a50.28,50.28,0,0,0,3.73-7.67c.19-.58.39-1,1.07-1.08-.17,3.16-1.81,5.8-3.33,8.37-1.68,2.85-2.54,6.1-4.56,8.75C408.36,266.62,408.35,267.75,407.1,267.54Z"/><path class="cls-3" d="M441.62,36.36c-1.37.31-2.43-.51-3.58-1-3.14-1.31-4.78-.21-4.58,3.14a24.92,24.92,0,0,0,.72,3.7c.18.84.56,1.7-.35,2.37a15.76,15.76,0,0,1-1.39-7.86c.16-1.9,1.09-2.95,3.08-2.86C437.85,34,440.09,34.28,441.62,36.36Z"/><path class="cls-3" d="M411.44,39.7c-1.94.36-2.7-1.44-3.93-2.28-1.81-1.24-3-3.22-5.13-4.17a1.1,1.1,0,0,1-.47-1.45C405.92,33.42,408.44,36.86,411.44,39.7Z"/><path class="cls-3" d="M52.71,126.53c.17.24.55.58.49.7-1.61,3.41-2.74,7-4,10.53-.06.16-.55.17-.84.26C48.9,133.85,50.72,130.16,52.71,126.53Z"/><path class="cls-3" d="M44.15,149c-1.43,3.54-2,7.63-5.89,9.65C40.81,155.8,41.25,151.65,44.15,149Z"/><path class="cls-3" d="M320.6,43.83c-.07,2.5-1,4.77-1.76,7.11a1.15,1.15,0,0,1-1.25.86C317.77,48.83,318.21,46,320.6,43.83Z"/><path class="cls-3" d="M420.25,240.78c-1.37-1.15-.11-2.24.24-3.19.82-2.22,1-4.77,2.92-6.49.72,1.54-.62,2.65-.92,4A38.83,38.83,0,0,1,420.25,240.78Z"/><path class="cls-3" d="M59,115c-1.7,2.67-2.81,5.69-4.82,8.18C55,120,55.78,116.76,59,115Z"/><path class="cls-3" d="M398.46,280a13.29,13.29,0,0,1,4.8-6.68C402.25,276,401,278.41,398.46,280Z"/><path class="cls-3" d="M426.25,184.17c-1.52-1.08-1.1-2.84-1.27-4.27-.13-1.11-1.43-2.4.06-3.51C425.82,178.93,426.63,181.46,426.25,184.17Z"/><path class="cls-3" d="M323.41,38a6.69,6.69,0,0,1-2.49,5.16A5.74,5.74,0,0,1,323.41,38Z"/><path class="cls-3" d="M73.46,100.66c-1.14,1.5-2.41,2.78-4.46,2.84C70.12,102,71.22,100.43,73.46,100.66Z"/><path class="cls-3" d="M26.51,163c-2.26.55-3.76-.44-4.78-2.38C23.58,160.86,24.89,162.22,26.51,163Z"/><path class="cls-3" d="M180.1,113.86a3.77,3.77,0,0,1-3.83,2.82C177,115,178.55,114.44,180.1,113.86Z"/><path class="cls-3" d="M21.72,160.57c-2,.06-2.84-1.2-3.36-2.85C20,158,20.77,159.43,21.72,160.57Z"/><path class="cls-3" d="M416.76,44c-1.72,0-3.08-.52-3.43-2.46C414.7,42,416.09,42.51,416.76,44Z"/><path class="cls-3" d="M34.64,161.6c-.49,1.52-1.27,2.42-2.95,1.36A4,4,0,0,1,34.64,161.6Z"/><path class="cls-3" d="M183.07,111.89a2.4,2.4,0,0,1-2.94,1.94C180.61,112.42,181.86,112.18,183.07,111.89Z"/><path class="cls-3" d="M430.22,94.13c0-1.44.1-2.82,2-2.94A4,4,0,0,1,430.22,94.13Z"/><path class="cls-3" d="M37.44,159.48c-.4,1.2-1,2.12-2.47,2.05A2.7,2.7,0,0,1,37.44,159.48Z"/><path class="cls-3" d="M325.36,35.65c.25,1.47-.52,2-1.85,2.14A2.58,2.58,0,0,1,325.36,35.65Z"/><path class="cls-3" d="M247.51,83.53c-.61,1.25-1.61,1.38-2.8,1A2.36,2.36,0,0,1,247.51,83.53Z"/><path class="cls-3" d="M54.22,123.18a2.58,2.58,0,0,1-1.33,2.48C52.75,124.52,52.83,123.49,54.22,123.18Z"/><path class="cls-3" d="M317.36,52.65c.7.83.95,1.57-.39,2A1.7,1.7,0,0,1,317.36,52.65Z"/><path class="cls-3" d="M444.07,38.25c-1.15.15-2.05,0-2-1.5A2.24,2.24,0,0,1,444.07,38.25Z"/><path class="cls-3" d="M449.32,44c-1.44,0-1.62-.86-1.47-2A2.21,2.21,0,0,1,449.32,44Z"/><path class="cls-3" d="M292.33,73.18c.3.84-.05,1.16-.88,1.08C291.46,73.67,291.69,73.25,292.33,73.18Z"/><path class="cls-3" d="M423.51,229.84c.12-.22.25-.44.38-.66C424.1,229.6,423.89,229.77,423.51,229.84Z"/><path class="cls-3" d="M172.67,322.7a16.55,16.55,0,0,1,5.79,2.54,123.59,123.59,0,0,0,23.51,11c4,1.34,7.89,3,12,3.9a241.52,241.52,0,0,0,24.31,4.36,211.48,211.48,0,0,0,22.61,1.15c5.32,0,10.53-1.43,15.87-1.4,3.31,0,3,0,3,3.25a33.64,33.64,0,0,1-1.26,9.64c-1.93,6.67-2.84,13.86-8.3,19.11-1.53,1.47-2.35,1.22-3.47-.06a5.23,5.23,0,0,1-1.07-2.6c-1.23-6.38-4.25-11.3-11.08-12.78-4.6-1-9,.21-12.83,2.52-7.39,4.42-10.2,11.65-11,19.81a38,38,0,0,0,2.47,16.87c3.58,10,9.68,17.64,19.59,22,5.69,2.52,11.5,4.26,17.67,2.68,8.14-2.08,15.51-5.59,20.83-12.53,1-1.35,1.63-3.39,3.81-3.63-2.43,4.33-5.28,8.31-9.54,11.05a46.31,46.31,0,0,1-12.48,5.72,26.78,26.78,0,0,1-14.37.36,42.69,42.69,0,0,1-9.48-3.76c-6.43-3.44-10.89-8.9-14.41-15.19a39.17,39.17,0,0,1-4.57-11.47c-2.3-11.57-1.19-22.55,8-30.95,7.3-6.7,18.08-7.23,24.84-.23,2.38,2.46,3,5.93,4,9.1.27.85.3,1.84,1.31,2.08s1.66-.62,2.11-1.31c2.41-3.75,4.88-7.48,5.71-12,.78-4.29,1.82-8.53,2.42-12.84.44-3.22-.12-3.94-3.38-3.45-10.24,1.54-20.52,1.09-30.78.83A113.48,113.48,0,0,1,227,344.37c-4.38-.8-8.65-2-13-2.76-5.68-1-10.94-3.41-16.31-5.4a122.38,122.38,0,0,1-22.77-11.47C174,324.22,172.88,323.94,172.67,322.7Z"/><path class="cls-3" d="M296.6,407.4c-.22-1.57-.2-3,2-3A5,5,0,0,1,296.6,407.4Z"/><path class="cls-5" d="M251,152.5l.49-.72c.83,0,1.2-.4.91-1.25l.48-.67c.6.09.73-.19.52-.71l.48-.73c.59.07.69-.21.49-.7.14-.25.29-.49.43-.73.63.06.74-.23.51-.74a10.71,10.71,0,0,1,1.9-3.05c.57,0,.76-.25.48-.78a2.92,2.92,0,0,1,.95-1.62c1-.25,1.17-.9,1-1.78l.91-1.64a2.31,2.31,0,0,0,1.4-2.77c.23-.5.45-1,.68-1.52.67.07.72-.54.9-.92a71.19,71.19,0,0,0,4.5-11.53c.46-1.7,1.06-2.09,2.62-1.06a42.53,42.53,0,0,0,4.8,2.58,129.59,129.59,0,0,0,28,10.28c5.62,1.27,11.16,2.88,17,3.11,1.33,0,1.92.61,1.64,1.95a84.21,84.21,0,0,0-2,15.67,107.55,107.55,0,0,0,.59,16.56A113,113,0,0,0,324,185.46,122.54,122.54,0,0,0,337.48,216c1.07,1.73,1.75,3.89,3.85,4.85l.49.64a2.45,2.45,0,0,0,1.95,2.69c.16.21.31.42.47.62-.39,1.3.38,1.66,1.44,1.79l.5.6c-.27,1.51.67,2,1.89,2.29l1.42,1.58a13,13,0,0,0,6.61,6.66,3,3,0,0,1,1.37,1.22,6.64,6.64,0,0,0,4.7,3.8c.2.16.4.33.61.48a2.42,2.42,0,0,0,2.73,1.94l.62.44c-.16.85.25.81.82.51l.63.46c-.2.8.55.9.95,1.16,7.7,5,16,8.47,25.2,9.19a6.93,6.93,0,0,0,5-1.12l1.39-.22c.34.61.8.26,1.23.14a30.33,30.33,0,0,0,6.64-2.6c.39-.22.86-.62,1.3-.22s0,.89-.16,1.28c-.5,1-1.14,1.92-1.59,2.93-1.05,2.43-3.19,4.35-3.41,7.17l-.47.67c-.68-.07-.77.24-.5.79l-.46.67a4.35,4.35,0,0,0-2.41,3.64l-.44.67c-1.47.3-1.93,1.34-2,2.69l-.48.65c-.87,0-1.35.32-.95,1.28l-.5.63a5.9,5.9,0,0,0-3.33,4.17l-.5.62c-1.12.34-2.15.75-1.91,2.25l-1,1.1c-1.89,1-3.57,2.11-4,4.38a28.7,28.7,0,0,1-5.17,5.16,5.2,5.2,0,0,0-3.89,3.59l-1.08.94c-1.72-.13-2.28,1.09-2.78,2.39-.41.61-.77,1.31-1.72,1-.06-.45-.2-.8-.77-.64-.47-.71-.93-1.42-1.39-2.13.22-.55.08-.82-.55-.74l-1.79-2.16a4.86,4.86,0,0,0-3.62-3.52l-1.13-.89a3.9,3.9,0,0,0-3.66-2.41l-1.11-.64a7.63,7.63,0,0,0-5.94-2.21l-1.11.21c0-.11-.06-.22-.1-.33s-.25-.49-.4-.51c-3-.3-6.09-.43-8.92.68-2.31.9-5.1,1.4-6.12,4.26l-.81.81c-2.76,1-3.31,3.73-4.47,5.91a2.23,2.23,0,0,1-1.68,1.32l-1.65-1.33c.14-.39-.11-.59-.39-.76a17.47,17.47,0,0,0-16.23-1.65c-2.36.91-5.12,1.66-6.41,4.34l-.91.73a5.67,5.67,0,0,0-4.2,4.25l-.51.61c-.88,0-1.34.33-.94,1.28l-.48.64c-.65-.07-.77.22-.5.77l-.49.68c-.59-.18-.87.24-1.11.65a43.83,43.83,0,0,0-5.81,26.39,1.11,1.11,0,0,0,.61.95c0,.26-.11.52-.16.78l-.17,0,.17,0c.18,0,.29,0,.3.23a2.59,2.59,0,0,1-2.14,1.62,157.52,157.52,0,0,1-21.22,2.41c-.52,0-1.17-.17-1.35.62l-1.21.07a108.29,108.29,0,0,0-16.11,0l-2.14-.08a20.5,20.5,0,0,0-9.36-.88l-1.11.23a3.37,3.37,0,0,0-.09-.34,5.94,5.94,0,0,0-5-.8l-1.17-.15a5.15,5.15,0,0,0-4.21-.88l-1-.16a1.33,1.33,0,0,0-1-.56,138.88,138.88,0,0,1-35.47-13c-.4-.22-.81-.56-1.33-.27l-1.64-.9c-.19-1-.87-1.16-1.73-1l-.68-.46c-.2-1-.9-1.12-1.74-1a.28.28,0,0,1-.29-.19,1.92,1.92,0,0,1,2.57-.49,15.22,15.22,0,0,0,3.63,1c5.6,1.34,11.26,2.17,17,1.42h3c4.21.82,8.33-.21,12.47-.6.85-.09,2.05-.13,2.57-1.22l1.37-.26c.22.47.65.43,1,.33a77.38,77.38,0,0,0,7.74-2.17c2.59-1,5.59-1.5,7.61-3.77l1-.58c1.7.31,2.74-.74,3.74-1.86l.66-.42c.49.25.82.21.81-.45l.68-.46c.85.1,1.56,0,1.68-1.06l.69-.41c.5.25.81.18.79-.47l.67-.47c.53.23.81.09.77-.52l1.17-.89c.61.31.81,0,.88-.57l1.11-.83c.62.18.8-.13.78-.68l2.53-2.21c.84.15,1.2-.24,1.2-1.05l5.59-5.6c1-.15,1.63-.59,1.48-1.71l1.86-2.13c.66,0,.76-.29.54-.82l1.87-2.56c.79.15.73-.42.76-.91l.72-1c.73,0,.72-.43.66-1l.24-1.19.52-.24c1-.17,1.1-.84,1-1.66l1-1.74c2.68-3.12,3.72-7.06,5.28-10.73.41-1,1.19-2,.65-3.24.13-.45.25-.9.38-1.35,1.55-1.09,1.33-2.91,1.62-4.42.62-3.36,2.26-6.57,1.55-10.14l-.26-1.12a2.07,2.07,0,0,0,.33-.1c.18-.11.52-.23.52-.35.06-3.78,1.14-7.56.44-11.29-.33-1.75.46-3.74-1-5.29l-.32-.11.27-1.11c.6-2.94-.18-5.66-1.3-8.34l-.21-1.36c.51-.35.33-.84.21-1.28a104,104,0,0,0-9-23.41c-.27-.48-.24-1.35-1.17-1.24-.16-.23-.31-.46-.46-.69.27-.5.13-.79-.45-.83a2.83,2.83,0,0,1-1-1.56c.27-.53.14-.82-.49-.79l-2.34-3.54c.18-.5.12-.83-.53-.75l-.89-1.18c.17-.5.1-.83-.54-.75l-.49-.65c.28-.86-.08-1.26-.95-1.26l-.9-1.19c.17-.53,0-.82-.58-.74l-2.77-3.08c.16-.54,0-.85-.6-.75l-6.06-6.07c0-.86-.37-1.25-1.25-1.05l-1.6-1.37c0-.8-.36-1.24-1.23-1l-1.69-1.36c.1-.62-.17-.77-.72-.57l-.69-.47c0-.83-.4-1.21-1.26-.92l-.68-.48c.08-.66-.25-.71-.76-.52a.29.29,0,0,1-.29-.23,2.08,2.08,0,0,0,0-1.57l3.3-3.51c.83,0,1.24-.37,1.05-1.24l1.33-1.65c.59.08.76-.19.58-.74l1.35-1.64c.84,0,1.27-.38,1-1.28l.47-.67C251.08,153.29,251.22,153,251,152.5Zm89.54,101.57A36.8,36.8,0,0,0,338,241.29c-.6-1.51-1.22-1.87-2.59-.71-7.76,6.57-15.31,7.09-23.94,1.72-4.68-2.91-4.76-2.94-6.3,2.53C303.05,252.47,303,260,307,267.14c6.83,12.1,22.45,12.45,29.82.72C339.5,263.59,340.38,258.85,340.55,254.07Z"/><path class="cls-6" d="M284.23,83.23c29.42,0,54.27,5.5,77.43,18a130.11,130.11,0,0,1,26.83,19.17c1.34,1.24,1.08,1.84-.45,2.54a110.46,110.46,0,0,1-37.93,9.4,145.46,145.46,0,0,1-56.44-7.08A116.46,116.46,0,0,1,269.09,114c-1.47-.9-2.23-1.13-2.84.93-8.47,28.45-26.17,49.91-50.57,66.13-17.8,11.84-37.54,19-58.42,23.13-6,1.21-12.13,1.95-18.21,2.86-.58.08-1.39.46-1.68-.33s.5-1.1,1-1.5A64,64,0,0,0,159.85,167c.82-4.79,2.21-6.73,7.09-8.12,13.48-3.84,17.33-21.82,7.21-31.46-2.05-2-2-1.94.28-3.86A173.7,173.7,0,0,1,229.84,92.8C248.51,86.44,267.71,83.14,284.23,83.23Z"/><path class="cls-6" d="M347.1,11.81c15,0,27.56,5.9,38.69,15.51,5.2,4.49,10.23,9.19,16,12.94,2.67,1.73,5.36,3.5,8.63,4,6.54.92,11.42-4.1,10.28-10.61a36,36,0,0,0-1.12-3.9c-.16-.53-.45-1.11.06-1.57s1.18-.17,1.75.14a23.78,23.78,0,0,1,8,7.47c12.82,18.15,10.93,42.09-4.58,58.58-9.83,10.45-22.17,16.49-35.7,20.52a2.51,2.51,0,0,1-2.58-.75,132.56,132.56,0,0,0-26.89-17.82,134.94,134.94,0,0,0-20.58-8.43c-1.94-.62-2.95-1.31-2.91-3.77a17.22,17.22,0,0,0-9-15.86,17.41,17.41,0,0,0-18.65.06c-1.6,1-2.21.91-2.84-1-6.82-20.52,2.44-44.14,24.57-52.59A47.3,47.3,0,0,1,347.1,11.81Z"/><path class="cls-2" d="M135.17,272q-1.65-4.12-3.32-8.26a1,1,0,0,0-.51-1.33q-.94-3.17-1.9-6.34a.65.65,0,0,0-.32-1c-.23-.94-.46-1.89-.68-2.83a2.68,2.68,0,0,0-.66-2.46c-.09-.46-.18-.93-.26-1.39a.71.71,0,0,0-.22-1l-.21-1.4a.67.67,0,0,0-.3-1l-.66-5.23a1.08,1.08,0,0,0-.32-1.48l-.27-2.34a1.69,1.69,0,0,0-.15-2c-.08-.94-.17-1.88-.26-2.82a133.38,133.38,0,0,0,0-15.87c1.2-2.46,3.94-2.87,5.84-4.39,1.15.1,2.31.42,3.41-.24l1.86-.26,2.31.31.06,1.23a.71.71,0,0,0-.39,1,3.16,3.16,0,0,0-.63,1.89.68.68,0,0,0-.26,1l-.24.9a.67.67,0,0,0-.29,1c-.07.31-.13.61-.2.92a.7.7,0,0,0-.23,1c-.06.47-.13.93-.2,1.39a1.12,1.12,0,0,0-.37,1.47c0,.47-.09.94-.14,1.41a1.23,1.23,0,0,0-.24,1.49,10.37,10.37,0,0,0-.24,4.26,14.83,14.83,0,0,0,0,7.25,7.67,7.67,0,0,0,.28,3.77,1.23,1.23,0,0,0,.2,1.5,2.86,2.86,0,0,0,.16,1.89.67.67,0,0,0,.3,1c.09.47.17.93.25,1.39a.7.7,0,0,0,.23,1l.17.92a1.09,1.09,0,0,0,.39,1.46,22.79,22.79,0,0,0,1.58,5.24,1,1,0,0,0,.51,1.34,61.43,61.43,0,0,0,12.92,21.32,62.35,62.35,0,0,0,22.56,16.11,1.15,1.15,0,0,0,1.3.64,2.12,2.12,0,0,0,1.44.53.72.72,0,0,0,1,.37l1.08.38a3.37,3.37,0,0,0,2.77,1l2.37.57a1.16,1.16,0,0,0,1.45.45,5,5,0,0,0,2.86.56,1.19,1.19,0,0,0,1.47.32l.92.2a2,2,0,0,0,2,.25l.92.19a47.43,47.43,0,0,0,14.42,0l.92-.18a7.21,7.21,0,0,0,4.84-.78l1.38-.26a2.72,2.72,0,0,0,2.46-.63,8.63,8.63,0,0,0,3.79-1.18.72.72,0,0,0,1-.31,41.34,41.34,0,0,0,10.55-4.84,1.25,1.25,0,0,0,1.27-.74,60.06,60.06,0,0,0,25.4-29.2,1.07,1.07,0,0,0,.61-1.32,16.66,16.66,0,0,0,1.54-4.29,2.56,2.56,0,0,0,.75-2.44l.3-1.38a2.62,2.62,0,0,0,.69-2.46c.08-.46.16-.92.25-1.38a9.24,9.24,0,0,0,.73-3.88c.07-1.27.15-2.53.23-3.79a.68.68,0,0,0,.14-1,26.22,26.22,0,0,0,0-7.61,1.1,1.1,0,0,0-.17-1.5l-.27-3.3a.65.65,0,0,0-.22-1c-.07-.3-.13-.61-.2-.91a1.72,1.72,0,0,0-.29-2l-.27-1.38a3.72,3.72,0,0,0-.72-2.92c-.07-.31-.14-.61-.2-.92a1,1,0,0,0-.48-1.34l-.88-3a1.05,1.05,0,0,0-.58-1.32,15.91,15.91,0,0,0-1.79-4.45,1.17,1.17,0,0,0-.63-1.3,62.75,62.75,0,0,0-28.79-29.61,1,1,0,0,0-.76-.74c0-.81.51-1.25,1.08-1.74,2.29-2,4.62-3.92,6.75-6.07,1.23-1.23,2-1.18,3.41-.21a93,93,0,0,1,33.06,41.2,2.48,2.48,0,0,0,.26.4.72.72,0,0,0,.39,1l1.53,4.3a.71.71,0,0,0,.36,1l.24.91a.7.7,0,0,0,.25,1,5,5,0,0,0,.71,2.35.69.69,0,0,0,.24,1c.08.3.15.61.23.91a.69.69,0,0,0,.25,1l.24.9a.71.71,0,0,0,.21,1l1.29,10a.68.68,0,0,0,.15,1l0,12.9a.68.68,0,0,0-.2,1,12,12,0,0,0-.27,3.78,1.13,1.13,0,0,0-.34,1.47c-.05.31-.09.62-.14.93a.71.71,0,0,0-.21,1,3,3,0,0,0-.29,1.85.7.7,0,0,0-.22,1c-.09.3-.17.6-.25.91a.68.68,0,0,0-.22,1c-.1.46-.19.91-.29,1.37-.84.78-.43,2.15-1.38,2.87a5.09,5.09,0,0,0-2.08,2.52,81.53,81.53,0,0,1-83.17,42.75c-17-2.42-31.62-9.42-43.76-21.58-.73-.73-1.4-1.56-2.56-1.59-2.69-2.7-4.1-6.21-6-9.41-1-1.77-1.89-3.64-2.82-5.46A1.2,1.2,0,0,0,135.17,272Z"/><path class="cls-5" d="M291.58,331.27c.15-9.63,2.74-18.42,9.14-25.83a21.82,21.82,0,0,1,10.56-7.13c6.91-2,12.44.41,16.78,5.74,10.22,12.57,9.73,37.33-6.69,48.12-11.49,7.55-24.68,2.74-28.42-10.5A34.19,34.19,0,0,1,291.58,331.27Z"/><path class="cls-2" d="M408,249.46c-3.19,2.68-7,3.55-11,3.84-8.37.6-15.84-2.31-22.95-6.36-2.08-1.19-4.41-2.06-6.05-4a1.75,1.75,0,0,1,1.76-.48c12.59.69,22-5,29.17-14.84,8.27-11.41,11-24.54,10.51-38.34-.63-18.84-6.57-35.85-18.55-50.58a48.05,48.05,0,0,0-7.72-7.83c-1.42-1.1-1.7-1.8.31-2.55,2.54-.94,5-2,7.48-3.21a2.11,2.11,0,0,1,2.9.58c18.76,20.29,28.88,44.14,29.75,71.85a71.57,71.57,0,0,1-.06,10.76c0,.38,0,.81-.42,1-.71-1.14.13-2.55-.65-4.05a6.14,6.14,0,0,0-.44,1.16A54.44,54.44,0,0,1,410.93,234c-5.46,7-12.33,12.13-21.31,14.05-2.85.61-5.72.72-8.61,1.2a32.67,32.67,0,0,0,17.55,3.16C402,252.08,404.86,250.38,408,249.46Z"/><path class="cls-5" d="M372.86,319.94c-.38,9.8-3.34,17.32-12.14,21.38a18.77,18.77,0,0,1-22.66-6.21,3.71,3.71,0,0,1-.47-3c1.63-10.14.28-19.72-5.57-28.39a2.93,2.93,0,0,1-.23-2.92c4.06-11.48,14.31-15.25,24.75-8.69S372.05,308.49,372.86,319.94Z"/><path class="cls-7" d="M185.36,238.29a21.9,21.9,0,1,1,22,21.83A22,22,0,0,1,185.36,238.29Z"/><path class="cls-2" d="M326.39,392.38c-14.67,0-29.18-3.06-42.5-10.83a77.29,77.29,0,0,1-7.3-5c-1.23-.92-1.29-1.74-.5-3a31.4,31.4,0,0,0,3.55-8.35c.51-1.85,1.24-2.08,2.87-1.23a101.23,101.23,0,0,0,20.95,8A99.59,99.59,0,0,0,345,374.21c.87-.13,1.73-.3,2.6-.42,1.23-.17,1.77.37,1.71,1.62q-.25,6.34-.46,12.68c0,1.42-.87,1.85-2.11,2.11A106.32,106.32,0,0,1,326.39,392.38Z"/><path class="cls-7" d="M370.78,193a17.53,17.53,0,0,1-19.9,17.43c-8.18-.94-15.9-8.35-17.68-16.77-1.7-8,0-15,6.43-20.28,7.68-6.26,19.31-4.43,26,3.91C369,181.46,370.84,186.24,370.78,193Z"/><path class="cls-7" d="M144.6,288.19c1.16,0,1.83.86,2.56,1.59,12.14,12.16,26.77,19.16,43.76,21.58a81.53,81.53,0,0,0,83.17-42.75,5.09,5.09,0,0,1,2.08-2.52l-.36,2.45a2.69,2.69,0,0,0-.59,1.89l-6.48,13.66,0,0a1.2,1.2,0,0,0-.89,1.31l-.07.13a1.36,1.36,0,0,0-.87,1.36l-.05.08c-2.61,3.27-5.51,6.31-7.85,9.81a2.93,2.93,0,0,0-1.43,1.43,18.62,18.62,0,0,0-5.29,4.79h0a21.15,21.15,0,0,0-5.52,4.19h-.16l-.06.15a7,7,0,0,0-3.61,2.26h-.16l-.07.15c-.62-.12-1,.33-1.5.59a72.37,72.37,0,0,1-20.39,7.86c-3.71.78-7.45,1.43-11.18,2.14a7.84,7.84,0,0,0-3.34.09,19.49,19.49,0,0,0-6.77,0,4.51,4.51,0,0,0-2.39-.07c-.73-.61-1.65-.46-2.49-.57-11.74-1.43-23-4.14-33-11a13.44,13.44,0,0,0-3.49-3.32,6.6,6.6,0,0,0-2.62-2.67.8.8,0,0,0-.61-.71,4.65,4.65,0,0,0-2.28-2.63,1.79,1.79,0,0,0-1-1.22,2,2,0,0,0-1.36-1.62.84.84,0,0,0-.6-.76,8.76,8.76,0,0,0-2.72-3.62.77.77,0,0,0-.56-.73,1.1,1.1,0,0,0-.85-1.22Z"/><path class="cls-3" d="M171.73,152.14c-4.63,5.64-14.41,6.47-20.58,1.67-3.57-2.77-6.08-6.22-6.18-11,1,.19.35,1.74,1.44,1.88.63-.24.53-.78.54-1.22.25-7.89,10-13.2,17.44-9.8,5.66,2.58,10.43,9.94,6.36,17C170,152,170.68,152.16,171.73,152.14Z"/><path class="cls-3" d="M89.14,220.58c-18.94-.77-36-6.56-50.88-18.6a73.64,73.64,0,0,1-20.71-25.6A38.92,38.92,0,0,1,14,163.31a4,4,0,0,1,0-1.43c.23-.9.14-2.14,1.17-2.46s1.79.54,2.41,1.27c3,3.43,6.69,5.56,11.21,5.62,7.47.1,12.26-4.33,15.72-10.37,3.71-6.47,5.8-13.63,8.19-20.63,4.41-12.91,11.12-24.21,22.44-32.2a44.62,44.62,0,0,1,21.48-7.84,50,50,0,0,1,25.16,4A57.07,57.07,0,0,1,145.37,118c1.34,1.78,2.56,3.65,3.82,5.48.85,1.25.71,2.2-.55,3.27-5.34,4.56-7.6,10.51-6.38,17.33,1.33,7.38,5.75,12.51,13.12,14.63,1.9.55,2.67,1.37,2.5,3.33a59.66,59.66,0,0,1-6.63,22.27,63.09,63.09,0,0,1-22.13,24.59,69.17,69.17,0,0,1-34,11.32A47.36,47.36,0,0,1,89.14,220.58Zm.82-1a67.85,67.85,0,0,0,28-5.67c22.4-9.75,35.23-26.93,39.09-51,.27-1.69.09-2.81-1.88-3.43-14.75-4.56-18.84-22.37-7.53-32.88,1.34-1.25,1.48-2,.48-3.54-8.31-12.87-19.5-21.91-34.5-25.64C98.8,93.76,85.09,96.19,73,105.81c-9,7.18-14.64,16.73-18.57,27.4-2.76,7.49-4.88,15.22-8.68,22.3C42.6,161.3,38.4,165.89,31.57,167c-5.56.89-10.18-1.18-14-5.28-.51-.55-1-1.51-1.89-1.19-1.1.39-.65,1.5-.68,2.32a20.52,20.52,0,0,0,.64,5.45c2.64,11.15,9.08,20,17.06,27.81C48.62,211.55,67.85,219.16,90,219.56Z"/><path class="cls-7" d="M326.54,451.12c-12.89-.2-24.38-4.45-34.84-11.79-1.14-.8-1.25-1.55-.65-2.82,6.43-13.55,13.14-27,17.24-41.5.42-1.49,1.34-1.52,2.57-1.28,6.71,1.32,13.49,1.34,20.27,1.11A74.88,74.88,0,0,0,345.81,393c2.4-.56,2.8-.36,2.58,2-1.22,13-3.19,25.82-6.95,38.34-1.37,4.59-3.05,9.07-4.73,13.55-.91,2.42-2.11,4-4.92,3.87A48.73,48.73,0,0,0,326.54,451.12Zm-.36-1.32h6a3,3,0,0,0,3.25-2.19c2.31-6.24,4.45-12.52,6.26-19,2.38-8.45,3.47-17.09,5-25.67.41-2.36-.21-2.85-2.55-2.48a54.73,54.73,0,0,1-7.09.79c-5,.12-10.08.23-15.1,0-4-.2-8.12-.47-11.95-1.85-1.66-.6-2-.08-2.49,1.29-3.48,10.68-8.29,20.8-13.1,30.92-3.15,6.63-3.27,6.67,3,10.24C306.29,447,315.76,450.17,326.18,449.8Z"/><path class="cls-7" d="M408,249.46c-3.18.92-6.08,2.62-9.48,3A32.67,32.67,0,0,1,381,249.29c2.89-.48,5.76-.59,8.61-1.2,9-1.92,15.85-7.05,21.31-14.05a54.44,54.44,0,0,0,11.13-27.57,6.14,6.14,0,0,1,.44-1.16c.78,1.5-.06,2.91.65,4.05,0,.39-.07.79-.11,1.18a30.55,30.55,0,0,0-1.28,9.41l-.15,1.12c-1,.49-.7,1.52-.92,2.3-.67,2.37-1.08,4.8-1.77,7.16-1.28,4.33-2.7,8.62-4.05,12.93a13.74,13.74,0,0,1-3.52,3.57c-.54-.14-.83.06-.81.64l-1.1.8c-.51-.14-.82,0-.83.59Z"/><path class="cls-7" d="M262.87,422.07c-5.88-.13-12.91-3.76-18.81-9.88a2.58,2.58,0,0,1-.69-2.42c2.15-12.55,8-22.75,18.8-29.86,1.24-.81,2.08-1,3.36,0,1.9,1.52,4,1.33,6-.75,1.71-1.78,2.84-1.46,4.56-.08a67.3,67.3,0,0,0,21.52,11.24c2.9.94,2.92,1,1.63,3.81-4.24,9.2-9.66,17.48-18.29,23.17C276.32,420.4,271.24,422.13,262.87,422.07Zm2-.93a27.79,27.79,0,0,0,15.87-4.73c6.81-4.54,11.58-10.81,15.38-18,1-1.82,1.1-2.61-1.06-3.5A63.84,63.84,0,0,1,273.65,381c-1-1.06-1.79-.9-2.87-.15-1.49,1-3.3,1.92-4.83.45-2-1.91-3.44-.74-5,.41-9.39,7-14.74,16.48-16.7,28a2.2,2.2,0,0,0,.7,2.1A28.36,28.36,0,0,0,264.91,421.14Z"/><path class="cls-2" d="M171.73,152.14c-1,0-1.72-.14-1-1.44,4.07-7.07-.7-14.43-6.36-17-7.46-3.4-17.19,1.91-17.44,9.8,0,.44.09,1-.54,1.22-1.09-.14-.41-1.69-1.44-1.88,0-1.23,0-2.45,0-3.68a20,20,0,0,0,1.91-5.88l1.34-2c.65.06.88-.22.68-.85l4.09-3.22a23.8,23.8,0,0,0,6.33-1.94h2.74a4.5,4.5,0,0,0,3.94.91,19.41,19.41,0,0,1,7.49,5.69c-.27.63,0,.91.62.94a4.19,4.19,0,0,0,1,1.95c-.41,1.61.59,3,.68,4.58.16,2.71-.55,5.29-.7,7.93Q173.42,149.69,171.73,152.14Z"/><path class="cls-3" d="M330.2,75.75c2.63,2.3,2.76,5.53,3,8.63.1,1.23-1,1.78-2.22,1.43a137.36,137.36,0,0,0-26.15-4.75.8.8,0,0,1-.79-.73,5.91,5.91,0,0,0,5.64-2.74c3.79-5.32,12-6.2,17.12-2.46,2.09,1.53,3.1,3.88,4.69,6.3C332.06,79,330.33,77.56,330.2,75.75Z"/><path class="cls-7" d="M304,464.93c-.1-2,.6-4.08.95-6.19.24-1.41,1.07-1.57,2.28-1.19A63.54,63.54,0,0,0,321.57,460c.92.07,2.41-.07,1.34,1.49-2.71,4-5.89,7.58-10.32,9.74C307.29,473.78,303.94,471.35,304,464.93Z"/><path class="cls-2" d="M341.33,220.83c-2.1-1-2.78-3.12-3.85-4.85A122.54,122.54,0,0,1,324,185.46a113,113,0,0,1-3.37-15.73,107.55,107.55,0,0,1-.59-16.56,84.21,84.21,0,0,1,2-15.67c.28-1.34-.31-1.9-1.64-1.95-5.8-.23-11.34-1.84-17-3.11a129.59,129.59,0,0,1-28-10.28,42.53,42.53,0,0,1-4.8-2.58c-1.56-1-2.16-.64-2.62,1.06a71.19,71.19,0,0,1-4.5,11.53c-.18.38-.23,1-.9.92,1.15-2.92,2.31-5.82,3.44-8.75.3-.8.48-1.65.72-2.48a.78.78,0,0,0,.4-1,2.71,2.71,0,0,0,.55-1.82.81.81,0,0,0,.45-1v0l1.43-.14a103.13,103.13,0,0,0,25,11,1,1,0,0,0,1.36.52l.84.19a3.26,3.26,0,0,0,2.51.79,29.44,29.44,0,0,0,6.6,1.6.76.76,0,0,0,1.08.31,8.92,8.92,0,0,0,3.71.71.75.75,0,0,0,1.08.24l.84.18a.74.74,0,0,0,1.08.24l1.8.28a.73.73,0,0,0,1.08.15l2.27.3a1.2,1.2,0,0,0,1.56.27l2.06.29a1.07,1.07,0,0,0,.71.85v.83a1.22,1.22,0,0,0-.37,1.54l-.15.85a.75.75,0,0,0-.21,1.08l-.25,1.8a1.78,1.78,0,0,0-.32,2c-.06.6-.12,1.21-.19,1.81a1.26,1.26,0,0,0-.22,1.56,22.11,22.11,0,0,0-.27,5.63,24.11,24.11,0,0,0,0,9.72c.1,1.56.19,3.11.28,4.67a1.84,1.84,0,0,0,.21,2c.07.44.13.88.19,1.32a1.21,1.21,0,0,0,.3,1.56,12.57,12.57,0,0,0,.7,4.67.74.74,0,0,0,.29,1.08c.2,1.08.41,2.16.62,3.24a.77.77,0,0,0,.29,1.08,70.6,70.6,0,0,0,4.44,13.81,1.15,1.15,0,0,0,.57,1.33,103.18,103.18,0,0,0,10.18,20C340,218.52,341,219.49,341.33,220.83Z"/><path class="cls-2" d="M331,351.62c-.55,0-1.11.08-1.67.08-1.15,0-1.25-.67-.61-1.36a34.78,34.78,0,0,0,6.86-10.86c.45-1.15,1.19-.82,1.85-.15a24,24,0,0,0,9.23,5.81c1.5.54,1.73,1.78,1.65,3.11s-1.18,1.35-2.12,1.51c-2.51.4-5,.83-7.56,1.16s-5.08.52-7.62.77Z"/><path class="cls-2" d="M330.2,75.75c.13,1.81,1.86,3.24,1.3,5.68-1.59-2.42-2.6-4.77-4.69-6.3-5.08-3.74-13.33-2.86-17.12,2.46a5.91,5.91,0,0,1-5.64,2.74.25.25,0,0,0-.3-.19c.27-1.38,1.61-2.38,1.4-3.93.11-.18.23-.36.35-.53.65,0,.9-.27.64-.91l2.68-2.65c.63.24.91,0,.95-.66l.49-.3a17.42,17.42,0,0,0,5.9-2l.84-.06c.49.57,1,.58,1.43,0l.86.07a44.85,44.85,0,0,0,6.85,2.4l.55.37c0,.63.22.93.88.72l1.64,1.66c-.16.63.12.9.73.9Z"/><path class="cls-2" d="M171.6,120.65c.15,1.16-2.47,2.87-3.64,2.41a18.56,18.56,0,0,0-14-.23c-.69.27-1.47.36-1.89-.45s.15-1.28.74-1.77c4.62-3.8,13.1-4.1,18-.6C171.13,120.23,171.41,120.49,171.6,120.65Z"/><path class="cls-2" d="M297.8,80.06c-.64-.06-1.27-.14-1.9-.18-3.46-.22-3.57-.47-1.68-3.48a17.25,17.25,0,0,1,6.54-6.15c.64-.35,1.34-.82,1.93-.11s1.22,1.6.53,2.6A21.55,21.55,0,0,0,300,79.1C299.71,80.13,298.71,80.13,297.8,80.06Z"/><path class="cls-5" d="M233.74,390.05a4.7,4.7,0,0,1,3-3.88,4.28,4.28,0,0,1,4.51.7c.91.66.52,1.4,0,2.08a30.7,30.7,0,0,0-4,8.4c-.17.5-.2,1.24-.91,1.22s-.73-.76-.89-1.26A41.27,41.27,0,0,1,233.74,390.05Z"/><path class="cls-2" d="M398.76,255.78a6.93,6.93,0,0,1-5,1.12c-9.25-.72-17.5-4.23-25.2-9.19-.4-.26-1.15-.36-.95-1.16,3.16,1.21,5.73,3.59,9,4.57a1.17,1.17,0,0,0,1.31.66,25.77,25.77,0,0,0,9,2.94.75.75,0,0,0,1.08.3C391.52,256.24,395.18,255.42,398.76,255.78Z"/><path class="cls-2" d="M184.21,324.94c.52-.29.93.05,1.33.27a138.88,138.88,0,0,0,35.47,13,1.33,1.33,0,0,1,1,.56,3.25,3.25,0,0,1,0,.44l-1.33-.23a1.28,1.28,0,0,0-1.55-.32,13.31,13.31,0,0,0-4.68-1.16.76.76,0,0,0-1.06-.34,4.31,4.31,0,0,0-2.29-.62.78.78,0,0,0-1.07-.35,2.66,2.66,0,0,0-1.82-.57,3.46,3.46,0,0,0-2.5-.83,3.1,3.1,0,0,0-1.81-.58.79.79,0,0,0-1-.43,148,148,0,0,1-17.6-7.95C184.87,325.57,184.33,325.52,184.21,324.94Z"/><path class="cls-3" d="M161.67,308.8c9.91,6.89,21.22,9.6,33,11,.84.11,1.76,0,2.49.57a8.65,8.65,0,0,1-5.34.21c-7.82-1.44-15.56-3.23-22.84-6.57-2.51-1.16-5.25-2-7-4.36A2.59,2.59,0,0,1,161.67,308.8Z"/><path class="cls-2" d="M201.37,323.32c-5.78.75-11.44-.08-17-1.42a15.22,15.22,0,0,1-3.63-1,1.92,1.92,0,0,0-2.57.49c-1.22-.14-2-1.16-3-1.56l-.85-1.81c2.86.66,5.45,2.25,8.46,2.36a.75.75,0,0,0,1.08.31,9.22,9.22,0,0,0,3.7.73.75.75,0,0,0,1.09.23l1.79.25a.77.77,0,0,0,1.09.18,6.59,6.59,0,0,0,2.75.29,4.42,4.42,0,0,0,3.47.25,11.69,11.69,0,0,0,3.68.21C201.36,323,201.36,323.16,201.37,323.32Z"/><path class="cls-3" d="M209.62,320.38c3.73-.71,7.47-1.36,11.18-2.14a72.37,72.37,0,0,0,20.39-7.86c.46-.26.88-.71,1.5-.59-.36,1.32-1.59,1.65-2.59,2.2-8.22,4.58-17.17,7-26.34,8.67C212.45,320.91,210.94,321.26,209.62,320.38Z"/><path class="cls-2" d="M288,336.08a1.11,1.11,0,0,1-.61-.95,43.83,43.83,0,0,1,5.81-26.39c.24-.41.52-.83,1.11-.65-1.38,3.15-3.11,6.14-4.17,9.43a7.33,7.33,0,0,0-.61,2.73,3,3,0,0,0-.7,2.52l-.28,2.28a.74.74,0,0,0-.14,1.08,26.38,26.38,0,0,0,0,10A3.25,3.25,0,0,1,288,336.08Z"/><path class="cls-3" d="M268.74,284.09l6.48-13.66c1.09,1.09-.34,1.78-.48,2.68s-.39,1.69.89,1.84c-.42,2.66-2.19,4.76-3,7.25l-1,1.74-1,1Z"/><path class="cls-2" d="M404.16,264.26c.22-2.82,2.36-4.74,3.41-7.17.45-1,1.09-1.94,1.59-2.93.2-.39.64-.86.16-1.28s-.91,0-1.3.22a30.33,30.33,0,0,1-6.64,2.6c-.43.12-.89.47-1.23-.14l6.07-2.34a15.1,15.1,0,0,0,4.21-2.55,1.53,1.53,0,0,1,1,1.1C408.92,255.89,407.12,260.42,404.16,264.26Z"/><path class="cls-2" d="M270.62,197.32c.93-.11.9.76,1.17,1.24a104,104,0,0,1,9,23.41c.12.44.3.93-.21,1.28-.2-.23-.4-.47-.59-.71a.77.77,0,0,0-.29-1.08l-1.62-6.11a.79.79,0,0,0-.39-1.07c-1.47-5.36-3.94-10.3-6.41-15.24C271,198.49,270.85,197.89,270.62,197.32Z"/><path class="cls-2" d="M263.46,341.72c.18-.79.83-.6,1.35-.62A157.52,157.52,0,0,0,286,338.69a2.59,2.59,0,0,0,2.14-1.62l.45.13-.36,1.82a.86.86,0,0,0-1.05.41l-.84.16a1.28,1.28,0,0,0-1.56.26l-2.27.29a.75.75,0,0,0-1.08.19l-.86.15a1.91,1.91,0,0,0-2,.38,8.4,8.4,0,0,0-3.23.27.75.75,0,0,0-1.09.15l-2.27.24a1.2,1.2,0,0,0-1.56.26l-6.11.32Z"/><path class="cls-2" d="M302.37,299.13c1.29-2.68,4.05-3.43,6.41-4.34A17.47,17.47,0,0,1,325,296.44c.28.17.53.37.39.76-2.34-.67-4.28-2.53-6.9-2.4a2.27,2.27,0,0,0-2.5-.32h-.87a2.31,2.31,0,0,0-2.51.35,5.22,5.22,0,0,0-2.77.58,1.05,1.05,0,0,0-1.33.63C306.13,296.4,304.51,298.27,302.37,299.13Z"/><path class="cls-2" d="M288.69,342.39c.79,0,2.53,2.62,2,3.56a.77.77,0,0,1-1,.33c-1.67-.49-3.34-1-5-1.51-.45-.14-.94-.38-.89-1s.61-.64,1.06-.73C286,342.85,287.21,342.65,288.69,342.39Z"/><path class="cls-2" d="M414.87,243.46c1.35-4.31,2.77-8.6,4.05-12.93.69-2.36,1.1-4.79,1.77-7.16.22-.78,0-1.81.92-2.3.19,2.65-.85,5.08-1.45,7.58a91.57,91.57,0,0,1-4.41,13.58C415.57,242.69,415.63,243.39,414.87,243.46Z"/><path class="cls-2" d="M237.2,315.63c-2,2.27-5,2.74-7.61,3.77a77.38,77.38,0,0,1-7.74,2.17c-.37.1-.8.14-1-.33l.71-.53a.75.75,0,0,0,1.08-.3c4.4-.76,8.48-2.49,12.59-4.13C235.85,316,236.43,315.52,237.2,315.63Z"/><path class="cls-2" d="M282.17,234.17c1.42,1.55.63,3.54,1,5.29.7,3.73-.38,7.51-.44,11.29,0,.12-.34.24-.52.35,0-2,0-4-.05-6a10.73,10.73,0,0,0,0-6.37C282.33,237.22,281.74,235.69,282.17,234.17Z"/><path class="cls-2" d="M334,290.49c1-2.86,3.81-3.36,6.12-4.26,2.83-1.11,5.91-1,8.92-.68.15,0,.27.34.4.51-2.16.34-4.37-.35-6.5.39a2.49,2.49,0,0,0-2.52.7C337.9,287.51,336.14,289.36,334,290.49Z"/><path class="cls-2" d="M219.46,321.5c-.52,1.09-1.72,1.13-2.57,1.22-4.14.39-8.26,1.42-12.47.6,0-.17,0-.34,0-.5a22.4,22.4,0,0,0,5.11-.22,1.2,1.2,0,0,0,1.56-.22,11,11,0,0,0,3.71-.36.75.75,0,0,0,1.09-.17C217.12,322.06,218.22,321.06,219.46,321.5Z"/><path class="cls-2" d="M246.14,341.79a108.29,108.29,0,0,1,16.11,0,2.33,2.33,0,0,0,0,.46H246.16A1.7,1.7,0,0,0,246.14,341.79Z"/><path class="cls-3" d="M125.12,215.28a133.38,133.38,0,0,1,0,15.87c-.71-.12-.82-.64-.82-1.24V216.53C124.31,215.93,124.4,215.4,125.12,215.28Z"/><path class="cls-2" d="M272.62,282.2c.82-2.49,2.59-4.59,3-7.25a11.67,11.67,0,0,0,1.64-4,.8.8,0,0,0,.31-1.08c.44-.49.28-1.34,1-1.68.54,1.23-.24,2.27-.65,3.24C276.34,275.14,275.3,279.08,272.62,282.2Z"/><path class="cls-3" d="M208.67,299.33a47.43,47.43,0,0,1-14.42,0c.33-.59.91-.56,1.46-.56h11.5C207.76,298.77,208.34,298.74,208.67,299.33Z"/><path class="cls-2" d="M282.1,252.32c.71,3.57-.93,6.78-1.55,10.14-.29,1.51-.07,3.33-1.62,4.42-.15-1.42,1-2.6.76-4a1.31,1.31,0,0,0,.33-1.55,5.44,5.44,0,0,0,.63-2.76.77.77,0,0,0,.23-1.09c.1-.6.21-1.19.31-1.79a.74.74,0,0,0,.21-1.08l.26-2.23h.22Z"/><path class="cls-3" d="M175.1,147.23c.15-2.64.86-5.22.7-7.93-.09-1.57-1.09-3-.68-4.58A12.48,12.48,0,0,1,175.1,147.23Z"/><path class="cls-3" d="M246.75,307.23a21.15,21.15,0,0,1,5.52-4.19c-.08,1-.78,1.92-.24,2.95l-.15.64-1.11.84a1.19,1.19,0,0,0-.31-.36l-.36-.79c-.27.28-.11.56,0,.84l.08.15C249.06,306.36,247.89,307.46,246.75,307.23Z"/><path class="cls-2" d="M327.05,298.53a2.23,2.23,0,0,0,1.68-1.32c1.16-2.18,1.71-4.92,4.47-5.91-1.64,2.45-3.61,4.72-4.31,7.7l-1.39.27Z"/><path class="cls-2" d="M234.64,340.83a20.5,20.5,0,0,1,9.36.88c-.13.14-.27.27-.41.4l-4.67-.33a2.59,2.59,0,0,0-2.51-.3l-1.76-.2A1.7,1.7,0,0,0,234.64,340.83Z"/><path class="cls-2" d="M356.1,237.7a13,13,0,0,1-6.61-6.66A70.42,70.42,0,0,1,356.1,237.7Z"/><path class="cls-3" d="M321.2,162.62a24.11,24.11,0,0,1,0-9.72A17.37,17.37,0,0,1,321.2,162.62Z"/><path class="cls-2" d="M421.76,220a30.55,30.55,0,0,1,1.28-9.41A21.52,21.52,0,0,1,421.76,220Z"/><path class="cls-2" d="M280.82,224.61c1.12,2.68,1.9,5.4,1.3,8.34a1.68,1.68,0,0,0-.45,0C282,230.09,280.55,227.44,280.82,224.61Z"/><path class="cls-3" d="M135.17,236.91a14.83,14.83,0,0,1,0-7.25A9.53,9.53,0,0,1,135.17,236.91Z"/><path class="cls-2" d="M350.66,286.18a7.63,7.63,0,0,1,5.94,2.21c-2.06-.3-3.81-1.64-5.93-1.74A2.46,2.46,0,0,0,350.66,286.18Z"/><path class="cls-3" d="M326.14,71.55a44.85,44.85,0,0,1-6.85-2.4C322,68.73,324.18,69.84,326.14,71.55Z"/><path class="cls-3" d="M199.51,320.47a19.49,19.49,0,0,1,6.77,0C204.77,321.58,201,321.58,199.51,320.47Z"/><path class="cls-2" d="M297.26,304.11a5.67,5.67,0,0,1,4.2-4.25Z"/><path class="cls-2" d="M385.26,288.47c.46-2.27,2.14-3.42,4-4.38A15.6,15.6,0,0,1,385.26,288.47Z"/><path class="cls-3" d="M282.1,238.73a10.73,10.73,0,0,1,0,6.37A7.77,7.77,0,0,1,282.1,238.73Z"/><path class="cls-2" d="M362.17,242.72a6.64,6.64,0,0,1-4.7-3.8A20.26,20.26,0,0,1,362.17,242.72Z"/><path class="cls-3" d="M159.33,125.23a23.8,23.8,0,0,1-6.33,1.94A8,8,0,0,1,159.33,125.23Z"/><path class="cls-3" d="M316.16,69.15a17.42,17.42,0,0,1-5.9,2A7.2,7.2,0,0,1,316.16,69.15Z"/><path class="cls-2" d="M228.41,339.92a5.94,5.94,0,0,1,5,.8l-2.67.09a1.21,1.21,0,0,0-1.56-.28l-.81-.14A2.46,2.46,0,0,0,228.41,339.92Z"/><path class="cls-2" d="M376.2,297.22a5.2,5.2,0,0,1,3.89-3.59A11.34,11.34,0,0,1,376.2,297.22Z"/><path class="cls-2" d="M392.66,280.12A5.9,5.9,0,0,1,396,276,11.11,11.11,0,0,1,392.66,280.12Z"/><path class="cls-3" d="M146.89,133.27a20,20,0,0,1-1.91,5.88A7.63,7.63,0,0,1,146.89,133.27Z"/><path class="cls-2" d="M362.5,292.33a4.86,4.86,0,0,1,3.62,3.52A16.34,16.34,0,0,1,362.5,292.33Z"/><path class="cls-3" d="M275.81,268.54l.36-2.45c.95-.72.54-2.09,1.38-2.87A5.25,5.25,0,0,1,275.81,268.54Z"/><path class="cls-3" d="M214.43,298.37a7.21,7.21,0,0,1-4.84.78C211,297.76,212.7,298,214.43,298.37Z"/><path class="cls-3" d="M174.24,318l.85,1.81A2.11,2.11,0,0,1,173,319c-.4-.45-1.07-.94-.39-1.56S173.86,317.4,174.24,318Z"/><path class="cls-2" d="M223,338.89a5.15,5.15,0,0,1,4.21.88l-.43.33-1.79-.27a.76.76,0,0,0-1.09-.22l-.8-.19C223.09,339.25,223.06,339.07,223,338.89Z"/><path class="cls-2" d="M400.32,270a4.35,4.35,0,0,1,2.41-3.64A8.69,8.69,0,0,1,400.32,270Z"/><path class="cls-2" d="M357.71,289a3.9,3.9,0,0,1,3.66,2.41A14,14,0,0,1,357.71,289Z"/><path class="cls-3" d="M146.94,292.25a8.76,8.76,0,0,1,2.72,3.62A3.86,3.86,0,0,1,146.94,292.25Z"/><path class="cls-2" d="M242,313.19c-1,1.12-2,2.17-3.74,1.86A8.8,8.8,0,0,1,242,313.19Z"/><path class="cls-3" d="M305.15,76.21c.21,1.55-1.13,2.55-1.4,3.93C302.75,78.3,304.23,77.36,305.15,76.21Z"/><path class="cls-3" d="M166,126.14a4.5,4.5,0,0,1-3.94-.91A4.14,4.14,0,0,1,166,126.14Z"/><path class="cls-2" d="M372.34,300.55c.5-1.3,1.06-2.52,2.78-2.39A6.21,6.21,0,0,1,372.34,300.55Z"/><path class="cls-3" d="M265.15,244.06a9.24,9.24,0,0,1-.73,3.88C263.28,246.38,263.74,245.13,265.15,244.06Z"/><path class="cls-3" d="M242.92,309.64a7,7,0,0,1,3.61-2.26A3.74,3.74,0,0,1,242.92,309.64Z"/><path class="cls-3" d="M155.56,302.81a6.6,6.6,0,0,1,2.62,2.67A2.56,2.56,0,0,1,155.56,302.81Z"/><path class="cls-2" d="M261.91,134.61a2.31,2.31,0,0,1-1.4,2.77A4.62,4.62,0,0,1,261.91,134.61Z"/><path class="cls-3" d="M197.67,322.61a4.42,4.42,0,0,1-3.47-.25C195.42,321.61,196.62,321.2,197.67,322.61Z"/><path class="cls-2" d="M343.77,224.16a2.45,2.45,0,0,1-1.95-2.69A5.76,5.76,0,0,1,343.77,224.16Z"/><path class="cls-3" d="M134.37,210.65c-1.1.66-2.26.34-3.41.24C132,209.44,133.17,209.88,134.37,210.65Z"/><path class="cls-2" d="M365.51,245.14a2.42,2.42,0,0,1-2.73-1.94A5.86,5.86,0,0,1,365.51,245.14Z"/><path class="cls-2" d="M397.92,273.39c0-1.35.49-2.39,2-2.69A5.51,5.51,0,0,1,397.92,273.39Z"/><path class="cls-2" d="M348.07,229.46c-1.22-.27-2.16-.78-1.89-2.29A4.67,4.67,0,0,1,348.07,229.46Z"/><path class="cls-3" d="M152.67,299.47A4.65,4.65,0,0,1,155,302.1,2.54,2.54,0,0,1,152.67,299.47Z"/><path class="cls-2" d="M390.25,283c-.24-1.5.79-1.91,1.91-2.25A4.4,4.4,0,0,1,390.25,283Z"/><path class="cls-3" d="M204.44,322.82c0,.16,0,.33,0,.5h-3c0-.16,0-.33,0-.5A2.16,2.16,0,0,1,204.44,322.82Z"/><path class="cls-3" d="M411.42,251.77a1.53,1.53,0,0,0-1-1.1c.37-1.07,1.16-1.18,1.76-.42S412.41,251.63,411.42,251.77Z"/><path class="cls-3" d="M263.41,218.64a3.72,3.72,0,0,1,.72,2.92C263,220.8,262.47,219.9,263.41,218.64Z"/><path class="cls-3" d="M138.54,210.7l-2.31-.31C137.19,209.11,138,209,138.54,210.7Z"/><path class="cls-2" d="M345.68,226.57c-1.06-.13-1.83-.49-1.44-1.79A2.7,2.7,0,0,1,345.68,226.57Z"/><path class="cls-3" d="M243.59,342.11c.14-.13.28-.26.41-.4l2.14.08a1.7,1.7,0,0,1,0,.45C245.26,343,244.39,343.26,243.59,342.11Z"/><path class="cls-3" d="M316,294.48a2.27,2.27,0,0,1,2.5.32C317.56,295.54,316.67,295.83,316,294.48Z"/><path class="cls-3" d="M312.62,294.83a2.31,2.31,0,0,1,2.51-.35C314.47,295.83,313.58,295.54,312.62,294.83Z"/><path class="cls-3" d="M236.41,341.48a2.59,2.59,0,0,1,2.51.3C238,342.56,237.1,342.82,236.41,341.48Z"/><path class="cls-3" d="M263.18,253.16a2.56,2.56,0,0,1-.75,2.44C261.71,254.49,262.23,253.76,263.18,253.16Z"/><path class="cls-3" d="M299.31,130.35a3.26,3.26,0,0,1-2.51-.79C297.94,128.86,298.72,129.29,299.31,130.35Z"/><path class="cls-3" d="M340.43,287.15a2.49,2.49,0,0,1,2.52-.7C342.29,287.33,341.53,287.86,340.43,287.15Z"/><path class="cls-2" d="M259.6,139c.22.88,0,1.53-1,1.78A1.82,1.82,0,0,1,259.6,139Z"/><path class="cls-3" d="M264.17,249.32a2.62,2.62,0,0,1-.69,2.46C262.6,250.65,263.21,249.94,264.17,249.32Z"/><path class="cls-3" d="M127.78,249.8a2.68,2.68,0,0,1,.66,2.46C127.53,251.62,126.91,250.91,127.78,249.8Z"/><path class="cls-3" d="M288.86,322.77a3,3,0,0,1,.7-2.52C290.31,321.36,289.82,322.13,288.86,322.77Z"/><path class="cls-3" d="M182.29,296.79a3.37,3.37,0,0,1-2.77-1C180.7,295.41,181.73,295.45,182.29,296.79Z"/><path class="cls-3" d="M205.73,334.75a3.46,3.46,0,0,1,2.5.83C207.09,336.25,206.29,335.86,205.73,334.75Z"/><path class="cls-3" d="M218.27,297.48a2.72,2.72,0,0,1-2.46.63C216.45,297.21,217.16,296.57,218.27,297.48Z"/><path class="cls-3" d="M264.4,222.94a1.72,1.72,0,0,1,.29,2C263.39,224.43,263.59,223.73,264.4,222.94Z"/><path class="cls-3" d="M125.39,234a1.69,1.69,0,0,1,.15,2C124.44,235.37,124.54,234.7,125.39,234Z"/><path class="cls-3" d="M321.88,143.9a1.78,1.78,0,0,1,.32-2C323,142.68,323.11,143.4,321.88,143.9Z"/><path class="cls-3" d="M262.23,342.25a2.33,2.33,0,0,1,0-.46l1.21-.07.86.38C263.7,343.2,263,343,262.23,342.25Z"/><path class="cls-3" d="M278.58,340.86a1.91,1.91,0,0,1,2-.38C280.15,341.79,279.42,341.61,278.58,340.86Z"/><path class="cls-3" d="M193.33,299.14a2,2,0,0,1-2-.25C192.14,298,192.82,297.88,193.33,299.14Z"/><path class="cls-3" d="M321.69,169.33a1.84,1.84,0,0,1-.21-2C322.59,167.86,322.45,168.56,321.69,169.33Z"/><path class="cls-2" d="M245.8,310.8c-.12,1.06-.83,1.16-1.68,1.06A2.25,2.25,0,0,1,245.8,310.8Z"/><path class="cls-2" d="M178.42,321.57c.84-.12,1.54,0,1.74,1A2.15,2.15,0,0,1,178.42,321.57Z"/><path class="cls-2" d="M180.84,323c.86-.15,1.54,0,1.73,1A2,2,0,0,1,180.84,323Z"/><path class="cls-2" d="M262.49,185.32c.87,0,1.23.4.95,1.26A1.38,1.38,0,0,1,262.49,185.32Z"/><path class="cls-2" d="M295.81,306c-.4-.95.06-1.27.94-1.28A1.55,1.55,0,0,1,295.81,306Z"/><path class="cls-2" d="M252.41,150.53c.29.85-.08,1.22-.91,1.25A1.31,1.31,0,0,1,252.41,150.53Z"/><path class="cls-2" d="M250,153.88c.29.9-.14,1.24-1,1.28A1.36,1.36,0,0,1,250,153.88Z"/><path class="cls-3" d="M150.26,296.63a2,2,0,0,1,1.36,1.62C150.57,298.21,150.1,297.68,150.26,296.63Z"/><path class="cls-2" d="M396.49,275.32c-.4-1,.08-1.27.95-1.28A1.45,1.45,0,0,1,396.49,275.32Z"/><path class="cls-2" d="M245.77,159.19c.19.87-.22,1.24-1.05,1.24A1.41,1.41,0,0,1,245.77,159.19Z"/><path class="cls-2" d="M243.14,166.74c.86-.29,1.23.09,1.26.92A1.33,1.33,0,0,1,243.14,166.74Z"/><path class="cls-2" d="M247.5,170.06c.87-.23,1.2.21,1.23,1A1.35,1.35,0,0,1,247.5,170.06Z"/><path class="cls-2" d="M250.33,172.44c.88-.2,1.27.19,1.25,1.05A1.42,1.42,0,0,1,250.33,172.44Z"/><path class="cls-3" d="M284.81,339.85a1.28,1.28,0,0,1,1.56-.26C286,340.63,285.49,340.69,284.81,339.85Z"/><path class="cls-3" d="M226.81,340.1l.43-.33,1.17.15a2.46,2.46,0,0,1,0,.47C227.72,341.14,227.18,341.11,226.81,340.1Z"/><path class="cls-3" d="M280,261.29a1.31,1.31,0,0,1-.33,1.55C278.89,262.13,279,261.6,280,261.29Z"/><path class="cls-3" d="M322.18,172.21a1.21,1.21,0,0,1-.3-1.56Q323.43,171.16,322.18,172.21Z"/><path class="cls-3" d="M229.21,340.53a1.21,1.21,0,0,1,1.56.28C230.08,341.68,229.56,341.58,229.21,340.53Z"/><path class="cls-3" d="M279.17,255.11a1.13,1.13,0,0,1,.34-1.47C280.38,254.36,280.21,254.83,279.17,255.11Z"/><path class="cls-3" d="M135.79,222.5a1.12,1.12,0,0,1,.37-1.47C137,221.77,136.85,222.25,135.79,222.5Z"/><path class="cls-3" d="M125.81,238.29a1.08,1.08,0,0,1,.32,1.48C125.1,239.47,124.94,239,125.81,238.29Z"/><path class="cls-3" d="M211.11,322.38a1.2,1.2,0,0,1-1.56.22C209.94,321.58,210.47,321.53,211.11,322.38Z"/><path class="cls-2" d="M241.42,163.94a2.08,2.08,0,0,1,0,1.57l-.59-.11-.09-1Z"/><path class="cls-3" d="M318.43,69.08c-.47.59-.94.58-1.43,0C317.47,68.35,318,68.35,318.43,69.08Z"/><path class="cls-3" d="M270.43,341.78a1.2,1.2,0,0,1,1.56-.26C271.62,342.55,271.1,342.63,270.43,341.78Z"/><path class="cls-3" d="M223,338.89c0,.18.06.36.1.53-.56.73-.89.51-1.1-.25a3.25,3.25,0,0,0,0-.44Z"/><path class="cls-3" d="M186.11,297.81a1.16,1.16,0,0,1-1.45-.45C185.46,296.51,185.91,296.75,186.11,297.81Z"/><path class="cls-3" d="M288.62,337.2l-.45-.13c0-.19-.12-.26-.3-.23v0c.05-.26.11-.52.16-.78a3.25,3.25,0,0,0,.44,0C289.23,336.37,289.25,336.74,288.62,337.2Z"/><path class="cls-3" d="M137.15,249.84a1.09,1.09,0,0,1-.39-1.46C137.78,248.63,138,249.09,137.15,249.84Z"/><path class="cls-3" d="M135.41,225.4a1.23,1.23,0,0,1,.24-1.49C136.54,224.56,136.41,225.05,135.41,225.4Z"/><path class="cls-3" d="M321.47,147.27a1.26,1.26,0,0,1,.22-1.56C322.5,146.35,322.44,146.87,321.47,147.27Z"/><path class="cls-3" d="M135.65,242.18a1.23,1.23,0,0,1-.2-1.5C136.43,241.06,136.52,241.56,135.65,242.18Z"/><path class="cls-3" d="M327.5,299.27l1.39-.27c.09.49.05.95-.52,1.05S327.57,299.77,327.5,299.27Z"/><path class="cls-2" d="M250.46,307.11a1.19,1.19,0,0,1,.31.36c-.07.54-.27.88-.88.57l.3-.74-.08-.15.18.05Z"/><path class="cls-3" d="M219.15,338.62a1.28,1.28,0,0,1,1.55.32C220,339.71,219.47,339.65,219.15,338.62Z"/><path class="cls-3" d="M322.81,138.14a1.22,1.22,0,0,1,.37-1.54C324,137.34,323.82,137.84,322.81,138.14Z"/><path class="cls-3" d="M269.59,117.86l-1.43.14c-.05-.41,0-.78.5-.88S269.5,117.33,269.59,117.86Z"/><path class="cls-3" d="M320.41,134.63a1.2,1.2,0,0,1-1.56-.27C319.53,133.52,320.05,133.63,320.41,134.63Z"/><path class="cls-3" d="M265.38,230.13a1.1,1.1,0,0,1,.17,1.5C264.57,231.24,264.51,230.74,265.38,230.13Z"/><path class="cls-3" d="M190.44,298.69a1.19,1.19,0,0,1-1.47-.32C189.67,297.49,190.16,297.63,190.44,298.69Z"/><path class="cls-3" d="M145.53,290.3a1.1,1.1,0,0,1,.85,1.22C145.54,291.5,145.31,291.06,145.53,290.3Z"/><path class="cls-3" d="M234.88,290.41a1.25,1.25,0,0,1-1.27.74C233.66,290.26,234.11,290.07,234.88,290.41Z"/><path class="cls-3" d="M350.66,286.18a2.46,2.46,0,0,1,0,.47c-.56.72-.91.54-1.12-.26Z"/><path class="cls-3" d="M135.17,272a1.2,1.2,0,0,1,.63,1.31C134.92,273.21,134.77,272.74,135.17,272Z"/><path class="cls-3" d="M176,294.49a1.15,1.15,0,0,1-1.3-.64C175.48,293.41,175.93,293.58,176,294.49Z"/><path class="cls-3" d="M277.58,269.91a.8.8,0,0,1-.31,1.08C276.54,270.4,276.87,270.1,277.58,269.91Z"/><path class="cls-2" d="M403.19,265.72c-.27-.55-.18-.86.5-.79A.61.61,0,0,1,403.19,265.72Z"/><path class="cls-3" d="M178.44,295.39a.72.72,0,0,1-1-.37C178.17,294.16,178.33,294.7,178.44,295.39Z"/><path class="cls-3" d="M131.34,262.42a1,1,0,0,1,.51,1.33C131,263.56,130.93,263.09,131.34,262.42Z"/><path class="cls-3" d="M277.84,261.85a.68.68,0,0,1,.22-1C278.83,261.36,278.56,261.65,277.84,261.85Z"/><path class="cls-3" d="M306.14,74.77c.26.64,0,.91-.64.91C305.43,75.17,305.61,74.84,306.14,74.77Z"/><path class="cls-3" d="M223.06,296a.72.72,0,0,1-1,.31C222.21,295.59,222.44,295.15,223.06,296Z"/><path class="cls-3" d="M278.31,259.93a.7.7,0,0,1,.22-1C279.3,259.44,279.07,259.74,278.31,259.93Z"/><path class="cls-3" d="M280.88,257.44a.77.77,0,0,1-.23,1.09C279.93,258,280.15,257.67,280.88,257.44Z"/><path class="cls-3" d="M308.52,296a1.05,1.05,0,0,1,1.33-.63C309.69,296.21,309.24,296.42,308.52,296Z"/><path class="cls-3" d="M278.82,257.06a.71.71,0,0,1,.21-1C279.79,256.55,279.54,256.85,278.82,257.06Z"/><path class="cls-3" d="M139.24,256.42a1,1,0,0,1-.51-1.34C139.56,255.28,139.66,255.75,139.24,256.42Z"/><path class="cls-3" d="M129.12,255.09a.65.65,0,0,1,.32,1C128.72,256,128.39,255.7,129.12,255.09Z"/><path class="cls-3" d="M281.4,254.57a.74.74,0,0,1-.21,1.08C280.38,255.12,280.66,254.8,281.4,254.57Z"/><path class="cls-3" d="M388,255a.75.75,0,0,1-1.08-.3C387.53,253.94,387.82,254.3,388,255Z"/><path class="cls-3" d="M282.1,252.32l-.22,0h-.22c-.69-.5-.64-.88.18-1.14Z"/><path class="cls-2" d="M367.91,298c.63-.08.77.19.55.74C368.05,298.67,367.84,298.45,367.91,298Z"/><path class="cls-3" d="M377.9,251.78a1.17,1.17,0,0,1-1.31-.66C377.34,250.71,377.77,251,377.9,251.78Z"/><path class="cls-3" d="M279.78,249.86a.68.68,0,0,1,.2-1C280.74,249.34,280.49,249.65,279.78,249.86Z"/><path class="cls-2" d="M408.61,249.06c0-.57.32-.73.83-.59C409.41,249,409.13,249.21,408.61,249.06Z"/><path class="cls-3" d="M127.3,247.4a.71.71,0,0,1,.22,1C126.78,248.22,126.46,247.93,127.3,247.4Z"/><path class="cls-2" d="M410.54,247.67c0-.58.27-.78.81-.64C411.35,247.58,411.08,247.79,410.54,247.67Z"/><path class="cls-3" d="M136.59,247.46a.7.7,0,0,1-.23-1C137.09,246.64,137.41,246.92,136.59,247.46Z"/><path class="cls-2" d="M367,246.09c-.57.3-1,.34-.82-.51A.63.63,0,0,1,367,246.09Z"/><path class="cls-2" d="M369.85,300.88c.57-.16.71.19.77.64a.33.33,0,0,1,.11.42l-.91-.5Z"/><path class="cls-3" d="M369.82,301.44l.91.5c-.07.33-.28.53-.6.42S369.76,301.8,369.82,301.44Z"/><path class="cls-3" d="M126.79,245a.67.67,0,0,1,.3,1C126.38,245.85,125.93,245.62,126.79,245Z"/><path class="cls-3" d="M136.11,245.06a.67.67,0,0,1-.3-1C136.53,244.21,137,244.43,136.11,245.06Z"/><path class="cls-3" d="M265.52,239.24a.68.68,0,0,1-.14,1C264.59,239.81,264.77,239.48,265.52,239.24Z"/><path class="cls-3" d="M280,236a.68.68,0,0,1-.15-1C280.52,235.17,280.72,235.49,280,236Z"/><path class="cls-3" d="M281.67,232.92a1.68,1.68,0,0,1,.45,0l-.27,1.11C281,233.8,281,233.42,281.67,232.92Z"/><path class="cls-3" d="M260.89,259.89a1.07,1.07,0,0,1-.61,1.32C259.9,260.5,260,260,260.89,259.89Z"/><path class="cls-3" d="M296,129.37a1,1,0,0,1-1.36-.52C295.28,128.44,295.73,128.59,296,129.37Z"/><path class="cls-2" d="M294.83,307.41c-.27-.55-.15-.84.5-.77C295.43,307.07,295.22,307.3,294.83,307.41Z"/><path class="cls-3" d="M264.89,225.82a.65.65,0,0,1,.22,1C264.38,226.64,264,226.36,264.89,225.82Z"/><path class="cls-3" d="M278.51,224.92a.71.71,0,0,1-.21-1C279.08,224.1,279.3,224.4,278.51,224.92Z"/><path class="cls-3" d="M278.06,223a.69.69,0,0,1-.25-1C278.54,222.16,278.82,222.45,278.06,223Z"/><path class="cls-3" d="M279.73,221.46a.77.77,0,0,1,.29,1.08C279.27,222.36,279,222.06,279.73,221.46Z"/><path class="cls-2" d="M248.72,308.93c0,.61-.24.75-.77.52C248,309,248.28,308.82,248.72,308.93Z"/><path class="cls-3" d="M277.58,221.08a.69.69,0,0,1-.24-1C278.08,220.25,278.33,220.54,277.58,221.08Z"/><path class="cls-2" d="M247.28,309.92c0,.65-.29.72-.79.47C246.62,310,246.85,309.79,247.28,309.92Z"/><path class="cls-3" d="M268.15,118a.81.81,0,0,1-.45,1C267,118.25,267.32,118,268.15,118Z"/><path class="cls-2" d="M243.44,312.32c0,.66-.32.7-.81.45C242.77,312.38,243,312.18,243.44,312.32Z"/><path class="cls-3" d="M136.36,219.64a.7.7,0,0,1,.23-1C137.41,219.17,137.09,219.45,136.36,219.64Z"/><path class="cls-3" d="M276.63,217.72a.7.7,0,0,1-.25-1C277.1,216.89,277.38,217.18,276.63,217.72Z"/><path class="cls-3" d="M262.73,216.38a1,1,0,0,1,.48,1.34C262.38,217.51,262.3,217,262.73,216.38Z"/><path class="cls-3" d="M136.79,217.71a.67.67,0,0,1,.29-1C138,217.33,137.48,217.55,136.79,217.71Z"/><path class="cls-3" d="M183.78,320.68a.75.75,0,0,1-1.08-.31C183.29,319.65,183.59,320,183.78,320.68Z"/><path class="cls-3" d="M222.62,320.41a.75.75,0,0,1-1.08.3C221.73,320,222,319.64,222.62,320.41Z"/><path class="cls-3" d="M267.15,120.81a.78.78,0,0,1-.4,1C266,121.16,266.43,120.94,267.15,120.81Z"/><path class="cls-3" d="M276.14,215.8a.71.71,0,0,1-.36-1C276.44,215,277,215.11,276.14,215.8Z"/><path class="cls-3" d="M188.57,321.64a.75.75,0,0,1-1.09-.23C188,320.63,188.35,320.88,188.57,321.64Z"/><path class="cls-3" d="M137.32,215.81a.68.68,0,0,1,.26-1C138.34,215.35,138.07,215.64,137.32,215.81Z"/><path class="cls-3" d="M191.45,322.07a.77.77,0,0,1-1.09-.18C190.86,321.12,191.2,321.33,191.45,322.07Z"/><path class="cls-3" d="M215.91,321.85a.75.75,0,0,1-1.09.17C215.08,321.29,215.42,321.13,215.91,321.85Z"/><path class="cls-3" d="M277.72,214.28a.79.79,0,0,1,.39,1.07C277.42,215.19,277,214.94,277.72,214.28Z"/><path class="cls-3" d="M261.27,212.07a1.05,1.05,0,0,1,.58,1.32C261,213.24,260.85,212.78,261.27,212.07Z"/><path class="cls-3" d="M138.21,212.91a.71.71,0,0,1,.39-1C139.31,212.59,138.94,212.83,138.21,212.91Z"/><path class="cls-3" d="M274.25,210.52a.72.72,0,0,1-.39-1C274.52,209.66,275.07,209.82,274.25,210.52Z"/><path class="cls-3" d="M258.85,206.32a1.17,1.17,0,0,1,.63,1.3C258.61,207.51,258.46,207,258.85,206.32Z"/><path class="cls-3" d="M309.77,71.46c0,.63-.32.9-.95.66C308.89,71.55,309.24,71.37,309.77,71.46Z"/><path class="cls-3" d="M288.44,326.13a.74.74,0,0,1,.14-1.08C289.31,325.51,289.18,325.86,288.44,326.13Z"/><path class="cls-3" d="M202.87,333.74a.79.79,0,0,1,1,.43C203.2,334.93,203,334.43,202.87,333.74Z"/><path class="cls-3" d="M329.09,197.42a1.15,1.15,0,0,1-.57-1.33C329.34,196.26,329.53,196.7,329.09,197.42Z"/><path class="cls-3" d="M210.05,336.15a.78.78,0,0,1,1.07.35C210.46,337.31,210.2,336.9,210.05,336.15Z"/><path class="cls-2" d="M269.71,195.8c.58,0,.72.33.45.83C269.75,196.49,269.56,196.24,269.71,195.8Z"/><path class="cls-3" d="M148.91,130.39c.2.63,0,.91-.68.85A.68.68,0,0,1,148.91,130.39Z"/><path class="cls-3" d="M213.41,337.12a.76.76,0,0,1,1.06.34C213.82,338.28,213.56,337.86,213.41,337.12Z"/><path class="cls-2" d="M268.23,193.45c.63,0,.76.26.49.79C268.32,194.12,268.1,193.9,268.23,193.45Z"/><path class="cls-2" d="M265.36,189.16c.65-.08.71.25.53.75C265.48,189.82,265.27,189.59,265.36,189.16Z"/><path class="cls-2" d="M263.93,187.23c.64-.08.71.25.54.75C264.08,187.87,263.85,187.67,263.93,187.23Z"/><path class="cls-2" d="M261,183.39c.61-.08.75.21.58.74C261.17,184.06,260.94,183.84,261,183.39Z"/><path class="cls-3" d="M324.08,182.28a.77.77,0,0,1-.29-1.08C324.51,181.4,324.87,181.69,324.08,182.28Z"/><path class="cls-3" d="M287.21,339.43a.86.86,0,0,1,1.05-.41C288.15,339.76,287.92,340.21,287.21,339.43Z"/><path class="cls-3" d="M223.93,339.61a.76.76,0,0,1,1.09.22C224.48,340.62,224.15,340.37,223.93,339.61Z"/><path class="cls-2" d="M257.64,179.56c.63-.1.76.21.6.75C257.81,180.24,257.58,180,257.64,179.56Z"/><path class="cls-3" d="M323.17,178a.74.74,0,0,1-.29-1.08C323.59,177.08,323.9,177.38,323.17,178Z"/><path class="cls-3" d="M229.3,176a1,1,0,0,1,.76.74c-.34.15-.7.27-1-.06S229.05,176.14,229.3,176Z"/><path class="cls-3" d="M281.46,340.33a.75.75,0,0,1,1.08-.19C282.3,340.87,282,341.09,281.46,340.33Z"/><path class="cls-3" d="M327.57,72.64c-.66.21-.91-.09-.88-.72C327.22,71.87,327.54,72.09,327.57,72.64Z"/><path class="cls-2" d="M245.09,168.13c.55-.2.82,0,.72.57A.57.57,0,0,1,245.09,168.13Z"/><path class="cls-3" d="M234.64,340.83a1.7,1.7,0,0,1,0,.45c-.53.74-.9.61-1.12-.22Z"/><path class="cls-3" d="M274.26,341.28a.75.75,0,0,1,1.09-.15C275.09,341.88,274.74,342,274.26,341.28Z"/><path class="cls-2" d="M241.7,165.74c.51-.19.84-.14.76.52C242,166.36,241.81,166.12,241.7,165.74Z"/><path class="cls-3" d="M240.73,164.43l.09,1c-.26-.1-.68-.15-.73-.32C239.93,164.59,240.34,164.48,240.73,164.43Z"/><path class="cls-2" d="M247.68,156.8c.18.55,0,.82-.58.74C247,157.08,247.26,156.87,247.68,156.8Z"/><path class="cls-2" d="M251,152.5c.21.53.07.79-.53.71A.53.53,0,0,1,251,152.5Z"/><path class="cls-2" d="M253.41,149.15c.21.52.08.8-.52.71A.54.54,0,0,1,253.41,149.15Z"/><path class="cls-2" d="M254.38,147.72c.2.49.1.77-.49.7C253.78,148,254,147.78,254.38,147.72Z"/><path class="cls-2" d="M255.32,146.25c.23.51.12.8-.51.74C254.7,146.55,254.89,146.32,255.32,146.25Z"/><path class="cls-2" d="M257.7,142.42c.28.53.09.77-.48.78C257.09,142.76,257.29,142.52,257.7,142.42Z"/><path class="cls-3" d="M322.45,140.07a.75.75,0,0,1,.21-1.08C323.39,139.51,323.17,139.84,322.45,140.07Z"/><path class="cls-3" d="M323.18,135.77a1.07,1.07,0,0,1-.71-.85c.35-.13.72-.23,1,.14S323.42,135.59,323.18,135.77Z"/><path class="cls-3" d="M316.58,134.06a.73.73,0,0,1-1.08-.15C316,133.19,316.31,133.32,316.58,134.06Z"/><path class="cls-3" d="M313.7,133.63a.74.74,0,0,1-1.08-.24C313.17,132.63,313.49,132.9,313.7,133.63Z"/><path class="cls-3" d="M311.78,133.21a.75.75,0,0,1-1.08-.24C311.25,132.17,311.57,132.44,311.78,133.21Z"/><path class="cls-3" d="M329.94,75.2c-.61,0-.89-.27-.73-.9C329.78,74.33,330,74.65,329.94,75.2Z"/><path class="cls-3" d="M174.12,132.77c-.64,0-.89-.31-.62-.94C174,131.92,174.21,132.26,174.12,132.77Z"/><path class="cls-3" d="M307,132.26a.76.76,0,0,1-1.08-.31C306.51,131.19,306.81,131.52,307,132.26Z"/><path class="cls-3" d="M340.55,254.07c-.17,4.78-1.05,9.52-3.73,13.79-7.37,11.73-23,11.38-29.82-.72-4-7.14-3.95-14.67-1.79-22.31,1.54-5.47,1.62-5.44,6.3-2.53,8.63,5.37,16.18,4.85,23.94-1.72,1.37-1.16,2-.8,2.59.71A36.8,36.8,0,0,1,340.55,254.07Zm-17.78,19.28c.85-.15,2.2-.31,3.51-.64s1.84-1,.73-2.19a38.49,38.49,0,0,0-3.41-3.68c-3.62-3-7.64-4.91-12.55-3.77-1.79.42-2.23,1.31-1.21,2.92A14.86,14.86,0,0,0,322.77,273.35Z"/><path class="cls-4" d="M252,306c-.54-1,.16-2,.24-2.95h0c3.27.06,3.78-2.92,5.29-4.79a2.93,2.93,0,0,1,1.43-1.43c1.36.07,1.83-1.95,3.37-1.43l.32.32-.69,1.38-5.58,5.61a1.33,1.33,0,0,0-1.21,1.05L252.66,306Z"/><path class="cls-4" d="M268.74,284.09l1.89.82v.69l-.52.24c-1.52.4-2,1.52-2,2.93l-.37,1.1-1.88,2.57c-.4.12-.64.35-.54.82l-1.85,2.12-.8.33-.32-.32c-.32-1.36.57-2.13,1.33-3.08,1.29-1.6,3.35-2.8,3.15-5.3l.05-.08c1.13.09,1.26-.47.87-1.36l.07-.13c1.17.15,1.29-.41.89-1.31Z"/><path class="cls-3" d="M268.11,288.77c0-1.41.48-2.53,2-2.93l-.24,1.19a.89.89,0,0,0-.66,1l-.71,1A1.11,1.11,0,0,0,268.11,288.77Z"/><path class="cls-2" d="M262.67,295.71l.8-.33c.14,1.13-.51,1.57-1.49,1.72Z"/><path class="cls-2" d="M270.63,285.6v-.69l1-1C271.73,284.76,271.59,285.43,270.63,285.6Z"/><path class="cls-2" d="M255.19,303.75a1.33,1.33,0,0,1,1.21-1.05C256.39,303.51,256,303.9,255.19,303.75Z"/><path class="cls-2" d="M252,306l.63,0c0,.55-.16.86-.78.68Z"/><path class="cls-2" d="M268.11,288.77a1.11,1.11,0,0,1,.39.2c0,.49,0,1.06-.77.91C267.86,289.51,268,289.14,268.11,288.77Z"/><path class="cls-2" d="M269.21,288a.89.89,0,0,1,.66-1C269.93,287.55,269.94,288,269.21,288Z"/><path class="cls-2" d="M265.32,293.26c-.1-.47.14-.7.54-.82C266.08,293,266,293.3,265.32,293.26Z"/><path class="cls-2" d="M287.87,336.86v0l-.17,0Z"/><path class="cls-3" d="M266.83,287c.2,2.5-1.86,3.7-3.15,5.3-.76.95-1.65,1.72-1.33,3.08-1.54-.52-2,1.5-3.37,1.43C261.32,293.32,264.22,290.28,266.83,287Z"/><path class="cls-3" d="M257.55,298.25c-1.51,1.87-2,4.85-5.29,4.79A18.62,18.62,0,0,1,257.55,298.25Z"/><path class="cls-3" d="M267.75,285.57c.39.89.26,1.45-.87,1.36A1.36,1.36,0,0,1,267.75,285.57Z"/><path class="cls-3" d="M268.71,284.13c.4.9.28,1.46-.89,1.31A1.2,1.2,0,0,1,268.71,284.13Z"/><path class="cls-6" d="M90,219.56c-22.11-.4-41.34-8-57.22-23.48-8-7.77-14.42-16.66-17.06-27.81a20.52,20.52,0,0,1-.64-5.45c0-.82-.42-1.93.68-2.32.92-.32,1.38.64,1.89,1.19,3.78,4.1,8.4,6.17,14,5.28,6.83-1.08,11-5.67,14.14-11.46,3.8-7.08,5.92-14.81,8.68-22.3C58.32,122.54,63.92,113,73,105.81c12.13-9.62,25.84-12,40.65-8.38,15,3.73,26.19,12.77,34.5,25.64,1,1.54.86,2.29-.48,3.54-11.31,10.51-7.22,28.32,7.53,32.88,2,.62,2.15,1.74,1.88,3.43-3.86,24-16.69,41.22-39.09,51A67.85,67.85,0,0,1,90,219.56Z"/><path class="cls-7" d="M326.18,449.8c-10.42.37-19.89-2.84-28.8-7.93-6.25-3.57-6.13-3.61-3-10.24,4.81-10.12,9.62-20.24,13.1-30.92.45-1.37.83-1.89,2.49-1.29,3.83,1.38,7.93,1.65,11.95,1.85,5,.25,10.07.14,15.1,0a54.73,54.73,0,0,0,7.09-.79c2.34-.37,3,.12,2.55,2.48-1.52,8.58-2.61,17.22-5,25.67-1.81,6.44-3.95,12.72-6.26,19a3,3,0,0,1-3.25,2.19Z"/><path class="cls-7" d="M264.91,421.14A28.36,28.36,0,0,1,245,411.8a2.2,2.2,0,0,1-.7-2.1c2-11.5,7.31-20.94,16.7-28,1.54-1.15,3-2.32,5-.41,1.53,1.47,3.34.58,4.83-.45,1.08-.75,1.83-.91,2.87.15a63.84,63.84,0,0,0,21.45,13.93c2.16.89,2,1.68,1.06,3.5-3.8,7.16-8.57,13.43-15.38,18A27.79,27.79,0,0,1,264.91,421.14Z"/><path class="cls-4" d="M250.46,307.11l-.17.09-.18-.05c-.12-.27-.28-.55,0-.83Z"/><path class="cls-6" d="M322.77,273.35A14.86,14.86,0,0,1,309.84,266c-1-1.61-.58-2.5,1.21-2.92,4.91-1.14,8.93.75,12.55,3.77a38.49,38.49,0,0,1,3.41,3.68c1.11,1.19.53,1.88-.73,2.19S323.62,273.2,322.77,273.35Z"/></svg>